<svg xmlns="http://www.w3.org/2000/svg" viewBox="0 0 540 470" width="540" height="470">
  <!-- svg-source:excalidraw — cap-dns-architecture.excalidraw -->
  <defs>
    <marker id="ah-666666" viewBox="0 0 10 10" refX="10" refY="5" markerWidth="8" markerHeight="8" orient="auto-start-reverse"><path d="M0,0 L10,5 L0,10 Z" fill="#666666"/></marker>
  </defs>

  <rect x="0" y="0" width="540" height="470" fill="#08080a"/>
  <rect x="20" y="20" width="500" height="160" rx="12" fill="#1f1f23" stroke="#60a5fa" stroke-width="2"/>
  <text x="270" y="53" font-family="\"Inter\", \"Segoe UI\", system-ui, -apple-system, sans-serif" font-size="18" fill="#60a5fa" text-anchor="middle">ON-CHAIN (Base)</text>
  <rect x="40" y="75" width="460" height="90" rx="8" fill="#2d2d35" stroke="#4ade80" stroke-width="2"/>
  <text x="270" y="99" font-family="\"Inter\", \"Segoe UI\", system-ui, -apple-system, sans-serif" font-size="14" fill="#4ade80" text-anchor="middle">CapabilityNameRegistry.sol</text>
  <rect x="55" y="115" width="100" height="35" rx="4" fill="#1f1f23" stroke="#a78bfa" stroke-width="1"/>
  <text x="105" y="136" font-family="\"Inter\", \"Segoe UI\", system-ui, -apple-system, sans-serif" font-size="11" fill="#a78bfa" text-anchor="middle">register()</text>
  <rect x="170" y="115" width="100" height="35" rx="4" fill="#1f1f23" stroke="#a78bfa" stroke-width="1"/>
  <text x="220" y="136" font-family="\"Inter\", \"Segoe UI\", system-ui, -apple-system, sans-serif" font-size="11" fill="#a78bfa" text-anchor="middle">transfer()</text>
  <rect x="285" y="115" width="100" height="35" rx="4" fill="#1f1f23" stroke="#a78bfa" stroke-width="1"/>
  <text x="335" y="136" font-family="\"Inter\", \"Segoe UI\", system-ui, -apple-system, sans-serif" font-size="11" fill="#a78bfa" text-anchor="middle">isOwner()</text>
  <rect x="400" y="115" width="85" height="35" rx="4" fill="#1f1f23" stroke="#a78bfa" stroke-width="1"/>
  <text x="442.5" y="136" font-family="\"Inter\", \"Segoe UI\", system-ui, -apple-system, sans-serif" font-size="11" fill="#a78bfa" text-anchor="middle">renew()</text>
  <path d="M270 185 L270 235" fill="none" stroke="#666666" stroke-width="2" stroke-linejoin="round" stroke-linecap="round" marker-end="url(#ah-666666)"/>
  <rect x="20" y="250" width="500" height="200" rx="12" fill="#1f1f23" stroke="#fbbf24" stroke-width="2"/>
  <text x="270" y="283" font-family="\"Inter\", \"Segoe UI\", system-ui, -apple-system, sans-serif" font-size="18" fill="#fbbf24" text-anchor="middle">OFF-CHAIN (PML)</text>
  <rect x="40" y="305" width="110" height="50" rx="6" fill="#2d2d35" stroke="#4ade80" stroke-width="2"/>
  <text x="95" y="332" font-family="\"Inter\", \"Segoe UI\", system-ui, -apple-system, sans-serif" font-size="12" fill="#f0ede8" text-anchor="middle">Capability Code</text>
  <rect x="165" y="305" width="110" height="50" rx="6" fill="#2d2d35" stroke="#4ade80" stroke-width="2"/>
  <text x="220" y="332" font-family="\"Inter\", \"Segoe UI\", system-ui, -apple-system, sans-serif" font-size="12" fill="#f0ede8" text-anchor="middle">Execution</text>
  <rect x="290" y="305" width="100" height="50" rx="6" fill="#2d2d35" stroke="#4ade80" stroke-width="2"/>
  <text x="340" y="332" font-family="\"Inter\", \"Segoe UI\", system-ui, -apple-system, sans-serif" font-size="12" fill="#f0ede8" text-anchor="middle">Quality Stats</text>
  <rect x="405" y="305" width="100" height="50" rx="6" fill="#2d2d35" stroke="#4ade80" stroke-width="2"/>
  <text x="455" y="332" font-family="\"Inter\", \"Segoe UI\", system-ui, -apple-system, sans-serif" font-size="12" fill="#f0ede8" text-anchor="middle">Superhyper</text>
  <rect x="40" y="380" width="465" height="55" rx="6" fill="#1e293b" stroke="#22d3ee" stroke-width="1"/>
  <text x="272.5" y="408" font-family="\"Inter\", \"Segoe UI\", system-ui, -apple-system, sans-serif" font-size="13" fill="#22d3ee" text-anchor="middle">Only names go on-chain. Everything else is fast &amp; free.</text>
</svg>