<svg xmlns="http://www.w3.org/2000/svg" viewBox="0 0 540 210" width="540" height="210">
  <!-- svg-source:excalidraw — cas-design-comparison.excalidraw -->
  <defs>
    <marker id="ah-666666" viewBox="0 0 10 10" refX="10" refY="5" markerWidth="8" markerHeight="8" orient="auto-start-reverse"><path d="M0,0 L10,5 L0,10 Z" fill="#666666"/></marker>
    <marker id="ah-fbbf24" viewBox="0 0 10 10" refX="10" refY="5" markerWidth="8" markerHeight="8" orient="auto-start-reverse"><path d="M0,0 L10,5 L0,10 Z" fill="#fbbf24"/></marker>
    <marker id="ah-4ade80" viewBox="0 0 10 10" refX="10" refY="5" markerWidth="8" markerHeight="8" orient="auto-start-reverse"><path d="M0,0 L10,5 L0,10 Z" fill="#4ade80"/></marker>
  </defs>

  <rect x="0" y="0" width="540" height="210" fill="#08080a"/>
  <rect x="20" y="20" width="220" height="160.52" rx="12" fill="#1f1f23" stroke="#60a5fa" stroke-width="2"/>
  <text x="130" y="40" font-family="\"Inter\", \"Segoe UI\", system-ui, -apple-system, sans-serif" font-size="12" fill="#60a5fa" text-anchor="middle">Traditional Design</text>
  <rect x="30" y="55" width="90" height="35" rx="6" fill="#2d2d35" stroke="#a78bfa" stroke-width="2"/>
  <text x="75" y="75" font-family="\"Inter\", \"Segoe UI\", system-ui, -apple-system, sans-serif" font-size="10" fill="#f0ede8" text-anchor="middle">Requirements</text>
  <rect x="140" y="55" width="90" height="35" rx="6" fill="#2d2d35" stroke="#a78bfa" stroke-width="2"/>
  <text x="185" y="75" font-family="\"Inter\", \"Segoe UI\", system-ui, -apple-system, sans-serif" font-size="10" fill="#f0ede8" text-anchor="middle">Design</text>
  <rect x="30" y="105" width="90" height="35" rx="6" fill="#2d2d35" stroke="#a78bfa" stroke-width="2"/>
  <text x="75" y="125" font-family="\"Inter\", \"Segoe UI\", system-ui, -apple-system, sans-serif" font-size="10" fill="#f0ede8" text-anchor="middle">Implement</text>
  <rect x="140" y="105" width="90" height="35" rx="6" fill="#2d2d35" stroke="#a78bfa" stroke-width="2"/>
  <text x="185" y="125" font-family="\"Inter\", \"Segoe UI\", system-ui, -apple-system, sans-serif" font-size="10" fill="#f0ede8" text-anchor="middle">Test</text>
  <path d="M125 72 L135 72" fill="none" stroke="#666666" stroke-width="2" stroke-linejoin="round" stroke-linecap="round" marker-end="url(#ah-666666)"/>
  <path d="M125 122 L135 122" fill="none" stroke="#666666" stroke-width="2" stroke-linejoin="round" stroke-linecap="round" marker-end="url(#ah-666666)"/>
  <rect x="280" y="20" width="240" height="160" rx="12" fill="#1f1f23" stroke="#4ade80" stroke-width="2"/>
  <text x="400" y="40" font-family="\"Inter\", \"Segoe UI\", system-ui, -apple-system, sans-serif" font-size="12" fill="#4ade80" text-anchor="middle">CAS Design</text>
  <rect x="294.95" y="55.33" width="80" height="35" rx="6" fill="#2d2d35" stroke="#a78bfa" stroke-width="2"/>
  <text x="335" y="75" font-family="\"Inter\", \"Segoe UI\", system-ui, -apple-system, sans-serif" font-size="10" fill="#f0ede8" text-anchor="middle">Environment</text>
  <rect x="430" y="55" width="80" height="35" rx="6" fill="#2d2d35" stroke="#a78bfa" stroke-width="2"/>
  <text x="470" y="75" font-family="\"Inter\", \"Segoe UI\", system-ui, -apple-system, sans-serif" font-size="10" fill="#f0ede8" text-anchor="middle">Agents</text>
  <rect x="295" y="105" width="80" height="35" rx="6" fill="#2d2d35" stroke="#a78bfa" stroke-width="2"/>
  <text x="335" y="125" font-family="\"Inter\", \"Segoe UI\", system-ui, -apple-system, sans-serif" font-size="10" fill="#f0ede8" text-anchor="middle">Feedback</text>
  <rect x="430" y="105" width="80" height="35" rx="6" fill="#2d2d35" stroke="#a78bfa" stroke-width="2"/>
  <text x="469.5" y="125" font-family="\"Inter\", \"Segoe UI\", system-ui, -apple-system, sans-serif" font-size="10" fill="#f0ede8" text-anchor="middle">Learning</text>
  <rect x="360" y="155" width="80" height="35" rx="6" fill="#2d2d35" stroke="#fbbf24" stroke-width="2"/>
  <text x="399.5" y="175" font-family="\"Inter\", \"Segoe UI\", system-ui, -apple-system, sans-serif" font-size="10" fill="#fbbf24" text-anchor="middle">Capabilities</text>
  <path d="M380 72 L425 72" fill="none" stroke="#666666" stroke-width="2" stroke-linejoin="round" stroke-linecap="round" marker-end="url(#ah-666666)"/>
  <path d="M380 122 L425 122" fill="none" stroke="#666666" stroke-width="2" stroke-linejoin="round" stroke-linecap="round" marker-end="url(#ah-666666)"/>
  <path d="M476.14 143.99 L476.14 169.21 L438.49 169.21" fill="none" stroke="#fbbf24" stroke-width="1" stroke-dasharray="8 4" stroke-linejoin="round" stroke-linecap="round" marker-end="url(#ah-fbbf24)"/>
  <path d="M294.33 121.11 L285.59 121.11 L285.59 67.38 L293.36 67.38" fill="none" stroke="#4ade80" stroke-width="2" stroke-dasharray="8 4" stroke-linejoin="round" stroke-linecap="round" marker-end="url(#ah-4ade80)"/>
  <text x="481.78" y="158.78" font-family="\"Inter\", \"Segoe UI\", system-ui, -apple-system, sans-serif" font-size="10.530410804733387" fill="#fbbf24" text-anchor="middle">emergence</text>
</svg>