<svg xmlns="http://www.w3.org/2000/svg" viewBox="0 0 630 150" width="630" height="150">
  <!-- svg-source:excalidraw — cas-pipeline-vs-adaptive.excalidraw -->
  <defs>
    <marker id="ah-666666" viewBox="0 0 10 10" refX="10" refY="5" markerWidth="8" markerHeight="8" orient="auto-start-reverse"><path d="M0,0 L10,5 L0,10 Z" fill="#666666"/></marker>
    <marker id="ah-4ade80" viewBox="0 0 10 10" refX="10" refY="5" markerWidth="8" markerHeight="8" orient="auto-start-reverse"><path d="M0,0 L10,5 L0,10 Z" fill="#4ade80"/></marker>
  </defs>

  <rect x="0" y="0" width="630" height="150" fill="#08080a"/>
  <rect x="20" y="20" width="280" height="80" rx="12" fill="#1f1f23" stroke="#60a5fa" stroke-width="2"/>
  <text x="160" y="40" font-family="\"Inter\", \"Segoe UI\", system-ui, -apple-system, sans-serif" font-size="12" fill="#60a5fa" text-anchor="middle">Pipeline (Static)</text>
  <rect x="35" y="55" width="60" height="35" rx="6" fill="#2d2d35" stroke="#a78bfa" stroke-width="2"/>
  <text x="65" y="76" font-family="\"Inter\", \"Segoe UI\", system-ui, -apple-system, sans-serif" font-size="11" fill="#f0ede8" text-anchor="middle">Input</text>
  <rect x="125" y="55" width="70" height="35" rx="6" fill="#2d2d35" stroke="#a78bfa" stroke-width="2"/>
  <text x="159.5" y="76" font-family="\"Inter\", \"Segoe UI\", system-ui, -apple-system, sans-serif" font-size="11" fill="#f0ede8" text-anchor="middle">Process</text>
  <rect x="225" y="55" width="60" height="35" rx="6" fill="#2d2d35" stroke="#a78bfa" stroke-width="2"/>
  <text x="255" y="76" font-family="\"Inter\", \"Segoe UI\", system-ui, -apple-system, sans-serif" font-size="11" fill="#f0ede8" text-anchor="middle">Output</text>
  <path d="M100 72 L120 72" fill="none" stroke="#666666" stroke-width="2" stroke-linejoin="round" stroke-linecap="round" marker-end="url(#ah-666666)"/>
  <path d="M200 72 L220 72" fill="none" stroke="#666666" stroke-width="2" stroke-linejoin="round" stroke-linecap="round" marker-end="url(#ah-666666)"/>
  <rect x="330" y="20" width="280" height="110" rx="12" fill="#1f1f23" stroke="#4ade80" stroke-width="2"/>
  <text x="470" y="40" font-family="\"Inter\", \"Segoe UI\", system-ui, -apple-system, sans-serif" font-size="12" fill="#4ade80" text-anchor="middle">CAS (Adaptive)</text>
  <rect x="350" y="55" width="70" height="35" rx="6" fill="#2d2d35" stroke="#a78bfa" stroke-width="2"/>
  <text x="384.5" y="76" font-family="\"Inter\", \"Segoe UI\", system-ui, -apple-system, sans-serif" font-size="11" fill="#f0ede8" text-anchor="middle">Agents</text>
  <rect x="435" y="55" width="80" height="35" rx="6" fill="#2d2d35" stroke="#a78bfa" stroke-width="2"/>
  <text x="475" y="75" font-family="\"Inter\", \"Segoe UI\", system-ui, -apple-system, sans-serif" font-size="10" fill="#f0ede8" text-anchor="middle">Environment</text>
  <rect x="525" y="55" width="75" height="35" rx="6" fill="#2d2d35" stroke="#fbbf24" stroke-width="2"/>
  <text x="562" y="75" font-family="\"Inter\", \"Segoe UI\", system-ui, -apple-system, sans-serif" font-size="10" fill="#fbbf24" text-anchor="middle">Emergence</text>
  <path d="M425 72 L433 72" fill="none" stroke="#666666" stroke-width="2" stroke-linejoin="round" stroke-linecap="round" marker-end="url(#ah-666666)" marker-start="url(#ah-666666)"/>
  <path d="M520 72 L520 72" fill="none" stroke="#666666" stroke-width="2" stroke-linejoin="round" stroke-linecap="round" marker-end="url(#ah-666666)" marker-start="url(#ah-666666)"/>
  <path d="M560 55 L560 30 L395 30 L395 60" fill="none" stroke="#4ade80" stroke-width="2" stroke-dasharray="8 4" stroke-linejoin="round" stroke-linecap="round" marker-end="url(#ah-4ade80)"/>
  <path d="M385 95 L385 120 L535 120 L535 95" fill="none" stroke="#4ade80" stroke-width="2" stroke-dasharray="8 4" stroke-linejoin="round" stroke-linecap="round" marker-end="url(#ah-4ade80)"/>
</svg>