<svg xmlns="http://www.w3.org/2000/svg" viewBox="0 0 500 200" width="500" height="200">
  <!-- svg-source:excalidraw — coala-meta-learning.excalidraw -->
  <defs>
    <marker id="ah-666666" viewBox="0 0 10 10" refX="10" refY="5" markerWidth="8" markerHeight="8" orient="auto-start-reverse"><path d="M0,0 L10,5 L0,10 Z" fill="#666666"/></marker>
  </defs>

  <rect x="0" y="0" width="500" height="200" fill="#08080a"/>
  <rect x="20" y="20" width="200" height="160" rx="12" fill="#1f1f23" stroke="#60a5fa" stroke-width="2"/>
  <text x="120" y="42" font-family="\"Inter\", \"Segoe UI\", system-ui, -apple-system, sans-serif" font-size="12" fill="#60a5fa" text-anchor="middle">CoALA (Single Agent)</text>
  <rect x="40" y="60" width="70" height="35" rx="6" fill="#2d2d35" stroke="#a78bfa" stroke-width="2"/>
  <text x="75" y="81" font-family="\"Inter\", \"Segoe UI\", system-ui, -apple-system, sans-serif" font-size="11" fill="#f0ede8" text-anchor="middle">User 1</text>
  <rect x="40" y="105" width="70" height="35" rx="6" fill="#2d2d35" stroke="#4ade80" stroke-width="2"/>
  <text x="75" y="126" font-family="\"Inter\", \"Segoe UI\", system-ui, -apple-system, sans-serif" font-size="11" fill="#f0ede8" text-anchor="middle">Agent 1</text>
  <rect x="130" y="105" width="70" height="35" rx="6" fill="#2d2d35" stroke="#fbbf24" stroke-width="2"/>
  <text x="165" y="125" font-family="\"Inter\", \"Segoe UI\", system-ui, -apple-system, sans-serif" font-size="10" fill="#f0ede8" text-anchor="middle">Memory 1</text>
  <path d="M75 98 L75 103" fill="none" stroke="#666666" stroke-width="2" stroke-linejoin="round" stroke-linecap="round" marker-end="url(#ah-666666)"/>
  <path d="M115 122 L127 122" fill="none" stroke="#666666" stroke-width="2" stroke-linejoin="round" stroke-linecap="round" marker-end="url(#ah-666666)"/>
  <rect x="260" y="20" width="220" height="160" rx="12" fill="#1f1f23" stroke="#FFB86F" stroke-width="2"/>
  <text x="370" y="42" font-family="\"Inter\", \"Segoe UI\", system-ui, -apple-system, sans-serif" font-size="12" fill="#FFB86F" text-anchor="middle">Casys PML (Shared)</text>
  <rect x="275" y="55" width="60" height="30" rx="6" fill="#2d2d35" stroke="#a78bfa" stroke-width="2"/>
  <text x="305" y="73" font-family="\"Inter\", \"Segoe UI\", system-ui, -apple-system, sans-serif" font-size="10" fill="#f0ede8" text-anchor="middle">User 1</text>
  <rect x="275" y="95" width="60" height="30" rx="6" fill="#2d2d35" stroke="#a78bfa" stroke-width="2"/>
  <text x="305" y="113" font-family="\"Inter\", \"Segoe UI\", system-ui, -apple-system, sans-serif" font-size="10" fill="#f0ede8" text-anchor="middle">User 2</text>
  <rect x="275" y="135" width="60" height="30" rx="6" fill="#2d2d35" stroke="#a78bfa" stroke-width="2"/>
  <text x="305" y="153" font-family="\"Inter\", \"Segoe UI\", system-ui, -apple-system, sans-serif" font-size="10" fill="#f0ede8" text-anchor="middle">User 3</text>
  <rect x="360" y="70" width="50" height="80" rx="6" fill="#2d2d35" stroke="#4ade80" stroke-width="2"/>
  <text font-family="\"Inter\", \"Segoe UI\", system-ui, -apple-system, sans-serif" font-size="9" fill="#f0ede8" text-anchor="middle" y="109">
    <tspan x="385">Shared</tspan>
    <tspan x="385" dy="11.7">System</tspan>
  </text>
  <rect x="420" y="85" width="50" height="50" rx="6" fill="#2d2d35" stroke="#fbbf24" stroke-width="2"/>
  <text font-family="\"Inter\", \"Segoe UI\", system-ui, -apple-system, sans-serif" font-size="9" fill="#f0ede8" text-anchor="middle" y="109">
    <tspan x="445">Global</tspan>
    <tspan x="445" dy="11.7">Graph</tspan>
  </text>
  <path d="M338 70 L358 90" fill="none" stroke="#666666" stroke-width="2" stroke-linejoin="round" stroke-linecap="round" marker-end="url(#ah-666666)"/>
  <path d="M338 110 L358 110" fill="none" stroke="#666666" stroke-width="2" stroke-linejoin="round" stroke-linecap="round" marker-end="url(#ah-666666)"/>
  <path d="M338 150 L358 130" fill="none" stroke="#666666" stroke-width="2" stroke-linejoin="round" stroke-linecap="round" marker-end="url(#ah-666666)"/>
  <path d="M413 110 L418 110" fill="none" stroke="#666666" stroke-width="2" stroke-linejoin="round" stroke-linecap="round" marker-end="url(#ah-666666)"/>
</svg>