<svg xmlns="http://www.w3.org/2000/svg" viewBox="0 0 1030 900" width="1030" height="900">
  <!-- svg-source:excalidraw — context-industrial-silos-en.excalidraw -->
  <defs>
    <marker id="ah-f59e0b" viewBox="0 0 10 10" refX="10" refY="5" markerWidth="8" markerHeight="8" orient="auto-start-reverse"><path d="M0,0 L10,5 L0,10 Z" fill="#f59e0b"/></marker>
    <marker id="ah-ef4444" viewBox="0 0 10 10" refX="10" refY="5" markerWidth="8" markerHeight="8" orient="auto-start-reverse"><path d="M0,0 L10,5 L0,10 Z" fill="#ef4444"/></marker>
    <marker id="ah-22c55e" viewBox="0 0 10 10" refX="10" refY="5" markerWidth="8" markerHeight="8" orient="auto-start-reverse"><path d="M0,0 L10,5 L0,10 Z" fill="#22c55e"/></marker>
    <marker id="ah-4a9eed" viewBox="0 0 10 10" refX="10" refY="5" markerWidth="8" markerHeight="8" orient="auto-start-reverse"><path d="M0,0 L10,5 L0,10 Z" fill="#4a9eed"/></marker>
    <marker id="ah-8b5cf6" viewBox="0 0 10 10" refX="10" refY="5" markerWidth="8" markerHeight="8" orient="auto-start-reverse"><path d="M0,0 L10,5 L0,10 Z" fill="#8b5cf6"/></marker>
    <marker id="ah-06b6d4" viewBox="0 0 10 10" refX="10" refY="5" markerWidth="8" markerHeight="8" orient="auto-start-reverse"><path d="M0,0 L10,5 L0,10 Z" fill="#06b6d4"/></marker>
  </defs>

  <rect x="0" y="0" width="1030" height="900" fill="#08080a"/>
  <text x="240" y="48" font-family='"Inter", "Segoe UI", system-ui, -apple-system, sans-serif' font-size="28" fill="#e5e5e5" text-anchor="start">The industrial problem: 15 systems, 15 silos</text>
  <rect x="20" y="110" width="140" height="55" rx="6.88" fill="#5c1a1a" stroke="#ef4444" stroke-width="2"/>
  <text x="90" y="143.8" font-family='"Inter", "Segoe UI", system-ui, -apple-system, sans-serif' font-size="18" fill="#e5e5e5" text-anchor="middle">ERP</text>
  <rect x="190" y="110" width="140" height="55" rx="6.88" fill="#5c3d1a" stroke="#f59e0b" stroke-width="2"/>
  <text x="260" y="143.8" font-family='"Inter", "Segoe UI", system-ui, -apple-system, sans-serif' font-size="18" fill="#e5e5e5" text-anchor="middle">MES</text>
  <rect x="360" y="110" width="140" height="55" rx="6.88" fill="#1a4d2e" stroke="#22c55e" stroke-width="2"/>
  <text x="430" y="143.8" font-family='"Inter", "Segoe UI", system-ui, -apple-system, sans-serif' font-size="18" fill="#e5e5e5" text-anchor="middle">PLM</text>
  <rect x="530" y="110" width="140" height="55" rx="6.88" fill="#1e3a5f" stroke="#4a9eed" stroke-width="2"/>
  <text x="600" y="143.8" font-family='"Inter", "Segoe UI", system-ui, -apple-system, sans-serif' font-size="18" fill="#e5e5e5" text-anchor="middle">CMMS</text>
  <rect x="700" y="110" width="140" height="55" rx="6.88" fill="#2d1b69" stroke="#8b5cf6" stroke-width="2"/>
  <text x="770" y="143.8" font-family='"Inter", "Segoe UI", system-ui, -apple-system, sans-serif' font-size="18" fill="#e5e5e5" text-anchor="middle">CRM</text>
  <rect x="870" y="110" width="140" height="55" rx="6.88" fill="#1a4d4d" stroke="#06b6d4" stroke-width="2"/>
  <text x="940" y="143.8" font-family='"Inter", "Segoe UI", system-ui, -apple-system, sans-serif' font-size="18" fill="#e5e5e5" text-anchor="middle">SCADA</text>
  <rect x="445" y="200" width="140" height="55" rx="6.88" fill="#5c3d1a" stroke="#f59e0b" stroke-width="1"/>
  <text x="515" y="233.8" font-family='"Inter", "Segoe UI", system-ui, -apple-system, sans-serif' font-size="18" fill="#e5e5e5" text-anchor="middle">QMS</text>
  <text x="340" y="298" font-family='"Inter", "Segoe UI", system-ui, -apple-system, sans-serif' font-size="18" fill="#ef4444" text-anchor="start">Each system = an isolated silo</text>
  <text x="420" y="352" font-family='"Inter", "Segoe UI", system-ui, -apple-system, sans-serif' font-size="22" fill="#f59e0b" text-anchor="start">MCP Protocol</text>
  <path d="M515 360 L515 410" fill="none" stroke="#f59e0b" stroke-width="3" stroke-linejoin="round" stroke-linecap="round" marker-end="url(#ah-f59e0b)"/>
  <rect x="300" y="430" width="430" height="80" rx="10" fill="#5c3d1a" stroke="#f59e0b" stroke-width="3"/>
  <text x="515" y="478.4" font-family='"Inter", "Segoe UI", system-ui, -apple-system, sans-serif' font-size="24" fill="#e5e5e5" text-anchor="middle">MCP Gateway</text>
  <path d="M90 165 L400 430" fill="none" stroke="#ef4444" stroke-width="1" stroke-dasharray="8 4" stroke-linejoin="round" stroke-linecap="round" marker-end="url(#ah-ef4444)"/>
  <path d="M260 165 L440 430" fill="none" stroke="#f59e0b" stroke-width="1" stroke-dasharray="8 4" stroke-linejoin="round" stroke-linecap="round" marker-end="url(#ah-f59e0b)"/>
  <path d="M430 165 L480 430" fill="none" stroke="#22c55e" stroke-width="1" stroke-dasharray="8 4" stroke-linejoin="round" stroke-linecap="round" marker-end="url(#ah-22c55e)"/>
  <path d="M600 165 L540 430" fill="none" stroke="#4a9eed" stroke-width="1" stroke-dasharray="8 4" stroke-linejoin="round" stroke-linecap="round" marker-end="url(#ah-4a9eed)"/>
  <path d="M770 165 L540 430" fill="none" stroke="#8b5cf6" stroke-width="1" stroke-dasharray="8 4" stroke-linejoin="round" stroke-linecap="round" marker-end="url(#ah-8b5cf6)"/>
  <path d="M940 165 L540 430" fill="none" stroke="#06b6d4" stroke-width="1" stroke-dasharray="8 4" stroke-linejoin="round" stroke-linecap="round" marker-end="url(#ah-06b6d4)"/>
  <path d="M515 510 L515 570" fill="none" stroke="#f59e0b" stroke-width="3" stroke-linejoin="round" stroke-linecap="round" marker-end="url(#ah-f59e0b)"/>
  <rect x="270" y="590" width="500" height="170" rx="21.25" fill="rgba(30,58,95,0.3)" stroke="#4a9eed" stroke-width="1"/>
  <text x="400" y="618" font-family='"Inter", "Segoe UI", system-ui, -apple-system, sans-serif' font-size="18" fill="#4a9eed" text-anchor="start">Structured context</text>
  <rect x="290" y="635" width="110" height="40" rx="5" fill="#1a4d2e" stroke="#22c55e" stroke-width="1"/>
  <text x="345" y="659.9" font-family='"Inter", "Segoe UI", system-ui, -apple-system, sans-serif' font-size="14" fill="#e5e5e5" text-anchor="middle">8 tools</text>
  <rect x="420" y="635" width="110" height="40" rx="5" fill="#1a4d4d" stroke="#06b6d4" stroke-width="1"/>
  <text x="475" y="659.9" font-family='"Inter", "Segoe UI", system-ui, -apple-system, sans-serif' font-size="14" fill="#e5e5e5" text-anchor="middle">Data</text>
  <rect x="550" y="635" width="110" height="40" rx="5" fill="#2d1b69" stroke="#8b5cf6" stroke-width="1"/>
  <text x="605" y="659.9" font-family='"Inter", "Segoe UI", system-ui, -apple-system, sans-serif' font-size="14" fill="#e5e5e5" text-anchor="middle">Graph</text>
  <rect x="420" y="700" width="110" height="40" rx="5" fill="#5c3d1a" stroke="#f59e0b" stroke-width="1"/>
  <text x="475" y="724.9" font-family='"Inter", "Segoe UI", system-ui, -apple-system, sans-serif' font-size="14" fill="#e5e5e5" text-anchor="middle">Sequences</text>
  <path d="M515 760 L515 810" fill="none" stroke="#4a9eed" stroke-width="2" stroke-linejoin="round" stroke-linecap="round" marker-end="url(#ah-4a9eed)"/>
  <rect x="400" y="820" width="230" height="60" rx="7.5" fill="#2d1b69" stroke="#8b5cf6" stroke-width="2"/>
  <text x="515" y="857.7" font-family='"Inter", "Segoe UI", system-ui, -apple-system, sans-serif' font-size="22" fill="#e5e5e5" text-anchor="middle">AI Agent</text>
</svg>