<svg xmlns="http://www.w3.org/2000/svg" viewBox="0 0 400 365" width="400" height="365">
  <!-- svg-source:excalidraw — dag-workflow.excalidraw -->
  <defs>
    <marker id="ah-666666" viewBox="0 0 10 10" refX="10" refY="5" markerWidth="8" markerHeight="8" orient="auto-start-reverse"><path d="M0,0 L10,5 L0,10 Z" fill="#666666"/></marker>
  </defs>

  <rect x="0" y="0" width="400" height="365" fill="#08080a"/>
  <rect x="20" y="20" width="360" height="260" rx="12" fill="#1f1f23" stroke="#FFB86F" stroke-width="2"/>
  <text x="200" y="42" font-family="\"Inter\", \"Segoe UI\", system-ui, -apple-system, sans-serif" font-size="12" fill="#FFB86F" text-anchor="middle">Workflow DAG</text>
  <rect x="150" y="55" width="100" height="35" rx="6" fill="#2d2d35" stroke="#4ade80" stroke-width="2"/>
  <text x="200" y="75" font-family="\"Inter\", \"Segoe UI\", system-ui, -apple-system, sans-serif" font-size="10" fill="#f0ede8" text-anchor="middle">Parse Intent</text>
  <rect x="150" y="105" width="100" height="35" rx="6" fill="#2d2d35" stroke="#60a5fa" stroke-width="2"/>
  <text x="200" y="125" font-family="\"Inter\", \"Segoe UI\", system-ui, -apple-system, sans-serif" font-size="10" fill="#f0ede8" text-anchor="middle">Generate Plan</text>
  <rect x="150" y="155" width="100" height="35" rx="6" fill="#2d2d35" stroke="#60a5fa" stroke-width="2"/>
  <text x="200" y="175" font-family="\"Inter\", \"Segoe UI\", system-ui, -apple-system, sans-serif" font-size="10" fill="#f0ede8" text-anchor="middle">Validate Plan</text>
  <rect x="50" y="210" width="90" height="35" rx="6" fill="#2d2d35" stroke="#a78bfa" stroke-width="2"/>
  <text x="95" y="229" font-family="\"Inter\", \"Segoe UI\", system-ui, -apple-system, sans-serif" font-size="9" fill="#f0ede8" text-anchor="middle">Execute Task 1</text>
  <rect x="260" y="210" width="90" height="35" rx="6" fill="#2d2d35" stroke="#a78bfa" stroke-width="2"/>
  <text x="305" y="229" font-family="\"Inter\", \"Segoe UI\", system-ui, -apple-system, sans-serif" font-size="9" fill="#f0ede8" text-anchor="middle">Execute Task 2</text>
  <rect x="150" y="260" width="100" height="35" rx="6" fill="#2d2d35" stroke="#fbbf24" stroke-width="2"/>
  <text x="200" y="280" font-family="\"Inter\", \"Segoe UI\", system-ui, -apple-system, sans-serif" font-size="10" fill="#f0ede8" text-anchor="middle">Merge Results</text>
  <rect x="150" y="310" width="100" height="35" rx="6" fill="#2d2d35" stroke="#4ade80" stroke-width="2"/>
  <text x="200" y="330" font-family="\"Inter\", \"Segoe UI\", system-ui, -apple-system, sans-serif" font-size="10" fill="#f0ede8" text-anchor="middle">Return Response</text>
  <path d="M200 95 L200 102" fill="none" stroke="#666666" stroke-width="2" stroke-linejoin="round" stroke-linecap="round" marker-end="url(#ah-666666)"/>
  <path d="M200 145 L200 152" fill="none" stroke="#666666" stroke-width="2" stroke-linejoin="round" stroke-linecap="round" marker-end="url(#ah-666666)"/>
  <path d="M170 195 L110 207" fill="none" stroke="#666666" stroke-width="2" stroke-linejoin="round" stroke-linecap="round" marker-end="url(#ah-666666)"/>
  <path d="M230 195 L290 207" fill="none" stroke="#666666" stroke-width="2" stroke-linejoin="round" stroke-linecap="round" marker-end="url(#ah-666666)"/>
  <path d="M110 250 L170 258" fill="none" stroke="#666666" stroke-width="2" stroke-linejoin="round" stroke-linecap="round" marker-end="url(#ah-666666)"/>
  <path d="M290 250 L230 258" fill="none" stroke="#666666" stroke-width="2" stroke-linejoin="round" stroke-linecap="round" marker-end="url(#ah-666666)"/>
  <path d="M200 298 L200 307" fill="none" stroke="#666666" stroke-width="2" stroke-linejoin="round" stroke-linecap="round" marker-end="url(#ah-666666)"/>
</svg>