<svg xmlns="http://www.w3.org/2000/svg" viewBox="0 0 390 275" width="390" height="275">
  <!-- svg-source:excalidraw — dag-resilience.excalidraw -->
  <defs>
    <marker id="ah-666666" viewBox="0 0 10 10" refX="10" refY="5" markerWidth="8" markerHeight="8" orient="auto-start-reverse"><path d="M0,0 L10,5 L0,10 Z" fill="#666666"/></marker>
  </defs>

  <rect x="0" y="0" width="390" height="275" fill="#08080a"/>
  <rect x="170" y="20" width="70" height="35" rx="6" fill="#2d2d35" stroke="#4ade80" stroke-width="2"/>
  <text x="205" y="41" font-family='"Inter", "Segoe UI", system-ui, -apple-system, sans-serif' font-size="11" fill="#f0ede8" text-anchor="middle">Start</text>
  <rect x="70" y="85" width="80" height="35" rx="6" fill="#2d2d35" stroke="#60a5fa" stroke-width="2"/>
  <text x="110" y="105" font-family='"Inter", "Segoe UI", system-ui, -apple-system, sans-serif' font-size="10" fill="#f0ede8" text-anchor="middle">Branch A</text>
  <rect x="260" y="85" width="80" height="35" rx="6" fill="#2d2d35" stroke="#60a5fa" stroke-width="2"/>
  <text x="300" y="105" font-family='"Inter", "Segoe UI", system-ui, -apple-system, sans-serif' font-size="10" fill="#f0ede8" text-anchor="middle">Branch B</text>
  <rect x="20" y="150" width="55" height="35" rx="6" fill="#2d2d35" stroke="#a78bfa" stroke-width="2"/>
  <text x="47.5" y="170" font-family='"Inter", "Segoe UI", system-ui, -apple-system, sans-serif' font-size="10" fill="#f0ede8" text-anchor="middle">A1</text>
  <rect x="95" y="150" width="55" height="35" rx="6" fill="#2d2d35" stroke="#ef4444" stroke-width="2"/>
  <text font-family='"Inter", "Segoe UI", system-ui, -apple-system, sans-serif' font-size="9" fill="#ef4444" text-anchor="middle" y="164">
    <tspan x="122.5">A2</tspan>
    <tspan x="122.5" dy="11.7">FAILED</tspan>
  </text>
  <rect x="240" y="150" width="55" height="35" rx="6" fill="#2d2d35" stroke="#4ade80" stroke-width="2"/>
  <text x="267.5" y="170" font-family='"Inter", "Segoe UI", system-ui, -apple-system, sans-serif' font-size="10" fill="#f0ede8" text-anchor="middle">B1</text>
  <rect x="315" y="150" width="55" height="35" rx="6" fill="#2d2d35" stroke="#4ade80" stroke-width="2"/>
  <text x="342.5" y="170" font-family='"Inter", "Segoe UI", system-ui, -apple-system, sans-serif' font-size="10" fill="#f0ede8" text-anchor="middle">B2</text>
  <rect x="170" y="220" width="70" height="35" rx="6" fill="#2d2d35" stroke="#fbbf24" stroke-width="2"/>
  <text x="205" y="240" font-family='"Inter", "Segoe UI", system-ui, -apple-system, sans-serif' font-size="10" fill="#f0ede8" text-anchor="middle">Merge</text>
  <path d="M185 60 L120 80" fill="none" stroke="#666666" stroke-width="2" stroke-linejoin="round" stroke-linecap="round" marker-end="url(#ah-666666)"/>
  <path d="M225 60 L290 80" fill="none" stroke="#666666" stroke-width="2" stroke-linejoin="round" stroke-linecap="round" marker-end="url(#ah-666666)"/>
  <path d="M90 125 L55 145" fill="none" stroke="#666666" stroke-width="2" stroke-linejoin="round" stroke-linecap="round" marker-end="url(#ah-666666)"/>
  <path d="M130 125 L130 145" fill="none" stroke="#666666" stroke-width="2" stroke-linejoin="round" stroke-linecap="round" marker-end="url(#ah-666666)"/>
  <path d="M280 125 L275 145" fill="none" stroke="#666666" stroke-width="2" stroke-linejoin="round" stroke-linecap="round" marker-end="url(#ah-666666)"/>
  <path d="M320 125 L345 145" fill="none" stroke="#666666" stroke-width="2" stroke-linejoin="round" stroke-linecap="round" marker-end="url(#ah-666666)"/>
  <path d="M55 190 L185 215" fill="none" stroke="#666666" stroke-width="2" stroke-linejoin="round" stroke-linecap="round" marker-end="url(#ah-666666)"/>
  <path d="M265 190 L215 215" fill="none" stroke="#666666" stroke-width="2" stroke-linejoin="round" stroke-linecap="round" marker-end="url(#ah-666666)"/>
  <path d="M335 190 L230 215" fill="none" stroke="#666666" stroke-width="2" stroke-linejoin="round" stroke-linecap="round" marker-end="url(#ah-666666)"/>
</svg>