<svg xmlns="http://www.w3.org/2000/svg" viewBox="0 0 480 240" width="480" height="240">
  <!-- svg-source:excalidraw — emerge-meta-capabilities.excalidraw -->
  <defs>
    <marker id="ah-666666" viewBox="0 0 10 10" refX="10" refY="5" markerWidth="8" markerHeight="8" orient="auto-start-reverse"><path d="M0,0 L10,5 L0,10 Z" fill="#666666"/></marker>
  </defs>

  <rect x="0" y="0" width="480" height="240" fill="#08080a"/>
  <rect x="20" y="20" width="440" height="200" rx="12" fill="#1f1f23" stroke="#f472b6" stroke-width="2"/>
  <text x="240" y="40" font-family="\"Inter\", \"Segoe UI\", system-ui, -apple-system, sans-serif" font-size="12" fill="#f472b6" text-anchor="middle">Meta: Full Release</text>
  <rect x="35" y="55" width="120" height="90" rx="10" fill="#1a1a1e" stroke="#4ade80" stroke-width="2"/>
  <text x="95" y="72" font-family="\"Inter\", \"Segoe UI\", system-ui, -apple-system, sans-serif" font-size="10" fill="#4ade80" text-anchor="middle">Cap: Git Workflow</text>
  <rect x="50" y="85" width="50" height="25" rx="4" fill="#2d2d35" stroke="#a78bfa" stroke-width="1"/>
  <text x="75" y="100" font-family="\"Inter\", \"Segoe UI\", system-ui, -apple-system, sans-serif" font-size="9" fill="#f0ede8" text-anchor="middle">commit</text>
  <rect x="50" y="117" width="50" height="25" rx="4" fill="#2d2d35" stroke="#a78bfa" stroke-width="1"/>
  <text x="75" y="132" font-family="\"Inter\", \"Segoe UI\", system-ui, -apple-system, sans-serif" font-size="9" fill="#f0ede8" text-anchor="middle">push</text>
  <rect x="180" y="55" width="120" height="90" rx="10" fill="#1a1a1e" stroke="#60a5fa" stroke-width="2"/>
  <text x="240" y="72" font-family="\"Inter\", \"Segoe UI\", system-ui, -apple-system, sans-serif" font-size="10" fill="#60a5fa" text-anchor="middle">Cap: Test Suite</text>
  <rect x="195" y="85" width="50" height="25" rx="4" fill="#2d2d35" stroke="#a78bfa" stroke-width="1"/>
  <text x="220" y="100" font-family="\"Inter\", \"Segoe UI\", system-ui, -apple-system, sans-serif" font-size="9" fill="#f0ede8" text-anchor="middle">test</text>
  <rect x="195" y="117" width="60" height="25" rx="4" fill="#2d2d35" stroke="#a78bfa" stroke-width="1"/>
  <text x="225" y="132" font-family="\"Inter\", \"Segoe UI\", system-ui, -apple-system, sans-serif" font-size="9" fill="#f0ede8" text-anchor="middle">coverage</text>
  <rect x="325" y="55" width="120" height="90" rx="10" fill="#1a1a1e" stroke="#fbbf24" stroke-width="2"/>
  <text x="385" y="72" font-family="\"Inter\", \"Segoe UI\", system-ui, -apple-system, sans-serif" font-size="10" fill="#fbbf24" text-anchor="middle">Cap: Deploy</text>
  <rect x="340" y="85" width="50" height="25" rx="4" fill="#2d2d35" stroke="#a78bfa" stroke-width="1"/>
  <text x="365" y="100" font-family="\"Inter\", \"Segoe UI\", system-ui, -apple-system, sans-serif" font-size="9" fill="#f0ede8" text-anchor="middle">build</text>
  <rect x="340" y="117" width="50" height="25" rx="4" fill="#2d2d35" stroke="#a78bfa" stroke-width="1"/>
  <text x="365" y="132" font-family="\"Inter\", \"Segoe UI\", system-ui, -apple-system, sans-serif" font-size="9" fill="#f0ede8" text-anchor="middle">deploy</text>
  <path d="M95 150 L95 200 L360 200 L360 150" fill="none" stroke="#666666" stroke-width="2" stroke-linejoin="round" stroke-linecap="round" marker-end="url(#ah-666666)"/>
  <path d="M240 150 L240 180 L360 180 L360 150" fill="none" stroke="#666666" stroke-width="2" stroke-linejoin="round" stroke-linecap="round" marker-end="url(#ah-666666)"/>
</svg>