<svg xmlns="http://www.w3.org/2000/svg" viewBox="0 0 490 140" width="490" height="140">
  <!-- svg-source:excalidraw — emerge-clustering.excalidraw -->
  <rect x="0" y="0" width="490" height="140" fill="#08080a"/>
  <rect x="20" y="20" width="150" height="100" rx="12" fill="#1f1f23" stroke="#4ade80" stroke-width="2"/>
  <text x="95" y="38" font-family='"Inter", "Segoe UI", system-ui, -apple-system, sans-serif' font-size="10" fill="#4ade80" text-anchor="middle">Cluster 1: Git Release</text>
  <rect x="35" y="50" width="70" height="25" rx="4" fill="#2d2d35" stroke="#a78bfa" stroke-width="1"/>
  <text x="70" y="65" font-family='"Inter", "Segoe UI", system-ui, -apple-system, sans-serif' font-size="9" fill="#f0ede8" text-anchor="middle">git_commit</text>
  <rect x="35" y="82" width="70" height="25" rx="4" fill="#2d2d35" stroke="#a78bfa" stroke-width="1"/>
  <text x="70" y="97" font-family='"Inter", "Segoe UI", system-ui, -apple-system, sans-serif' font-size="9" fill="#f0ede8" text-anchor="middle">github_push</text>
  <rect x="115" y="66" width="50" height="25" rx="4" fill="#2d2d35" stroke="#a78bfa" stroke-width="1"/>
  <text x="140" y="81" font-family='"Inter", "Segoe UI", system-ui, -apple-system, sans-serif' font-size="9" fill="#f0ede8" text-anchor="middle">slack</text>
  <rect x="190" y="20" width="130" height="100" rx="12" fill="#1f1f23" stroke="#60a5fa" stroke-width="2"/>
  <text x="255" y="38" font-family='"Inter", "Segoe UI", system-ui, -apple-system, sans-serif' font-size="10" fill="#60a5fa" text-anchor="middle">Cluster 2: Testing</text>
  <rect x="205" y="55" width="60" height="25" rx="4" fill="#2d2d35" stroke="#a78bfa" stroke-width="1"/>
  <text x="235" y="70" font-family='"Inter", "Segoe UI", system-ui, -apple-system, sans-serif' font-size="9" fill="#f0ede8" text-anchor="middle">jest_run</text>
  <rect x="205" y="87" width="80" height="25" rx="4" fill="#2d2d35" stroke="#a78bfa" stroke-width="1"/>
  <text x="245" y="101" font-family='"Inter", "Segoe UI", system-ui, -apple-system, sans-serif' font-size="8" fill="#f0ede8" text-anchor="middle">coverage_check</text>
  <rect x="340" y="20" width="130" height="100" rx="12" fill="#1f1f23" stroke="#fbbf24" stroke-width="2"/>
  <text x="405" y="38" font-family='"Inter", "Segoe UI", system-ui, -apple-system, sans-serif' font-size="10" fill="#fbbf24" text-anchor="middle">Cluster 3: Deploy</text>
  <rect x="355" y="55" width="70" height="25" rx="4" fill="#2d2d35" stroke="#a78bfa" stroke-width="1"/>
  <text x="390" y="70" font-family='"Inter", "Segoe UI", system-ui, -apple-system, sans-serif' font-size="9" fill="#f0ede8" text-anchor="middle">docker_build</text>
  <rect x="355" y="87" width="70" height="25" rx="4" fill="#2d2d35" stroke="#a78bfa" stroke-width="1"/>
  <text x="390" y="102" font-family='"Inter", "Segoe UI", system-ui, -apple-system, sans-serif' font-size="9" fill="#f0ede8" text-anchor="middle">aws_deploy</text>
  <path d="M70 78 L70 80" fill="none" stroke="#666666" stroke-width="2" stroke-linejoin="round" stroke-linecap="round"/>
  <path d="M108 78 L113 78" fill="none" stroke="#666666" stroke-width="2" stroke-linejoin="round" stroke-linecap="round"/>
  <path d="M235 83 L235 85" fill="none" stroke="#666666" stroke-width="2" stroke-linejoin="round" stroke-linecap="round"/>
  <path d="M390 83 L390 85" fill="none" stroke="#666666" stroke-width="2" stroke-linejoin="round" stroke-linecap="round"/>
</svg>