<svg xmlns="http://www.w3.org/2000/svg" viewBox="0 0 470 200" width="470" height="200">
  <!-- svg-source:excalidraw — emerge-observation.excalidraw -->
  <defs>
    <marker id="ah-666666" viewBox="0 0 10 10" refX="10" refY="5" markerWidth="8" markerHeight="8" orient="auto-start-reverse"><path d="M0,0 L10,5 L0,10 Z" fill="#666666"/></marker>
  </defs>

  <rect x="0" y="0" width="470" height="200" fill="#08080a"/>
  <rect x="20" y="20" width="100" height="40" rx="6" fill="#2d2d35" stroke="#60a5fa" stroke-width="2"/>
  <text x="70" y="43" font-family='"Inter", "Segoe UI", system-ui, -apple-system, sans-serif' font-size="11" fill="#f0ede8" text-anchor="middle">Workflow 1</text>
  <rect x="20" y="80" width="100" height="40" rx="6" fill="#2d2d35" stroke="#60a5fa" stroke-width="2"/>
  <text x="70" y="103" font-family='"Inter", "Segoe UI", system-ui, -apple-system, sans-serif' font-size="11" fill="#f0ede8" text-anchor="middle">Workflow 2</text>
  <rect x="20" y="140" width="100" height="40" rx="6" fill="#2d2d35" stroke="#60a5fa" stroke-width="2"/>
  <text x="70" y="163" font-family='"Inter", "Segoe UI", system-ui, -apple-system, sans-serif' font-size="11" fill="#f0ede8" text-anchor="middle">Workflow 3</text>
  <rect x="180" y="70" width="100" height="60" rx="8" fill="#2d2d35" stroke="#fbbf24" stroke-width="2"/>
  <text x="230" y="104" font-family='"Inter", "Segoe UI", system-ui, -apple-system, sans-serif' font-size="12" fill="#fbbf24" text-anchor="middle">Observer</text>
  <rect x="340" y="70" width="110" height="60" rx="8" fill="#2d2d35" stroke="#4ade80" stroke-width="2"/>
  <text x="395" y="103" font-family='"Inter", "Segoe UI", system-ui, -apple-system, sans-serif' font-size="11" fill="#4ade80" text-anchor="middle">Graph Updates</text>
  <path d="M125 40 L175 90" fill="none" stroke="#666666" stroke-width="2" stroke-linejoin="round" stroke-linecap="round" marker-end="url(#ah-666666)"/>
  <path d="M125 100 L175 100" fill="none" stroke="#666666" stroke-width="2" stroke-linejoin="round" stroke-linecap="round" marker-end="url(#ah-666666)"/>
  <path d="M125 160 L175 110" fill="none" stroke="#666666" stroke-width="2" stroke-linejoin="round" stroke-linecap="round" marker-end="url(#ah-666666)"/>
  <path d="M285 100 L335 100" fill="none" stroke="#666666" stroke-width="2" stroke-linejoin="round" stroke-linecap="round" marker-end="url(#ah-666666)"/>
</svg>