<svg xmlns="http://www.w3.org/2000/svg" viewBox="0 0 500 170" width="500" height="170">
  <!-- svg-source:excalidraw — emerge-evolution.excalidraw -->
  <rect x="0" y="0" width="500" height="170" fill="#08080a"/>
  <rect x="20" y="20" width="120" height="100" rx="12" fill="#1f1f23" stroke="#60a5fa" stroke-width="2"/>
  <text x="80" y="38" font-family='"Inter", "Segoe UI", system-ui, -apple-system, sans-serif' font-size="10" fill="#60a5fa" text-anchor="middle">Week 1</text>
  <rect x="35" y="50" width="90" height="28" rx="4" fill="#2d2d35" stroke="#4ade80" stroke-width="1"/>
  <text x="80" y="67" font-family='"Inter", "Segoe UI", system-ui, -apple-system, sans-serif' font-size="10" fill="#f0ede8" text-anchor="middle">Cap A: 0.9</text>
  <rect x="35" y="85" width="90" height="28" rx="4" fill="#2d2d35" stroke="#4ade80" stroke-width="1"/>
  <text x="80" y="102" font-family='"Inter", "Segoe UI", system-ui, -apple-system, sans-serif' font-size="10" fill="#f0ede8" text-anchor="middle">Cap B: 0.8</text>
  <rect x="180" y="20" width="140" height="130" rx="12" fill="#1f1f23" stroke="#fbbf24" stroke-width="2"/>
  <text x="250" y="38" font-family='"Inter", "Segoe UI", system-ui, -apple-system, sans-serif' font-size="10" fill="#fbbf24" text-anchor="middle">Week 4</text>
  <rect x="195" y="50" width="100" height="28" rx="4" fill="#2d2d35" stroke="#4ade80" stroke-width="1"/>
  <text x="245" y="67" font-family='"Inter", "Segoe UI", system-ui, -apple-system, sans-serif' font-size="10" fill="#f0ede8" text-anchor="middle">Cap A: 0.95</text>
  <rect x="195" y="85" width="110" height="28" rx="4" fill="#2d2d35" stroke="#ef4444" stroke-width="1"/>
  <text x="250" y="101" font-family='"Inter", "Segoe UI", system-ui, -apple-system, sans-serif' font-size="9" fill="#ef4444" text-anchor="middle">Cap B: 0.6 decay</text>
  <rect x="195" y="120" width="110" height="28" rx="4" fill="#2d2d35" stroke="#a78bfa" stroke-width="1"/>
  <text x="250" y="136" font-family='"Inter", "Segoe UI", system-ui, -apple-system, sans-serif' font-size="9" fill="#a78bfa" text-anchor="middle">Cap C: 0.85 new!</text>
  <rect x="360" y="20" width="120" height="100" rx="12" fill="#1f1f23" stroke="#4ade80" stroke-width="2"/>
  <text x="420" y="38" font-family='"Inter", "Segoe UI", system-ui, -apple-system, sans-serif' font-size="10" fill="#4ade80" text-anchor="middle">Week 8</text>
  <rect x="375" y="50" width="90" height="28" rx="4" fill="#2d2d35" stroke="#4ade80" stroke-width="1"/>
  <text x="420" y="67" font-family='"Inter", "Segoe UI", system-ui, -apple-system, sans-serif' font-size="10" fill="#f0ede8" text-anchor="middle">Cap A: 0.92</text>
  <rect x="375" y="85" width="90" height="28" rx="4" fill="#2d2d35" stroke="#4ade80" stroke-width="1"/>
  <text x="420" y="102" font-family='"Inter", "Segoe UI", system-ui, -apple-system, sans-serif' font-size="10" fill="#f0ede8" text-anchor="middle">Cap C: 0.88</text>
</svg>