<svg xmlns="http://www.w3.org/2000/svg" viewBox="0 0 720 400" font-family="'Inter','Segoe UI',system-ui,sans-serif">
  <rect width="720" height="400" fill="#08080a" rx="8"/>

  <!-- Title -->
  <text x="360" y="26" text-anchor="middle" fill="#94a3b8" font-size="13" font-weight="600">THE MCP ECOSYSTEM — 2026</text>

  <!-- Center: MCP Protocol -->
  <circle cx="360" cy="200" r="42" fill="#0f2a1a" stroke="#4ade80" stroke-width="2.5"/>
  <text x="360" y="194" text-anchor="middle" fill="#4ade80" font-size="14" font-weight="700">MCP</text>
  <text x="360" y="210" text-anchor="middle" fill="#4ade80" font-size="9">Protocol</text>

  <!-- Ring labels -->
  <text x="360" y="60" text-anchor="middle" fill="#475569" font-size="10" font-weight="500">AI CLIENTS</text>
  <text x="108" y="200" text-anchor="middle" fill="#475569" font-size="10" font-weight="500" transform="rotate(-90,108,200)">FRAMEWORKS</text>
  <text x="612" y="200" text-anchor="middle" fill="#475569" font-size="10" font-weight="500" transform="rotate(90,612,200)">REGISTRIES</text>
  <text x="360" y="380" text-anchor="middle" fill="#475569" font-size="10" font-weight="500">SERVER ECOSYSTEM</text>

  <!-- AI Clients (top arc) -->
  <rect x="180" y="46" width="80" height="30" rx="6" fill="#1e1b4b" stroke="#6366f1" stroke-width="1.5"/>
  <text x="220" y="65" text-anchor="middle" fill="#a5b4fc" font-size="10">Claude</text>
  <line x1="220" y1="76" x2="320" y2="165" stroke="#6366f1" stroke-width="1" opacity="0.4"/>

  <rect x="280" y="36" width="70" height="30" rx="6" fill="#1e1b4b" stroke="#6366f1" stroke-width="1.5"/>
  <text x="315" y="55" text-anchor="middle" fill="#a5b4fc" font-size="10">Cursor</text>
  <line x1="315" y1="66" x2="350" y2="160" stroke="#6366f1" stroke-width="1" opacity="0.4"/>

  <rect x="370" y="36" width="80" height="30" rx="6" fill="#1e1b4b" stroke="#6366f1" stroke-width="1.5"/>
  <text x="410" y="55" text-anchor="middle" fill="#a5b4fc" font-size="10">Windsurf</text>
  <line x1="400" y1="66" x2="370" y2="160" stroke="#6366f1" stroke-width="1" opacity="0.4"/>

  <rect x="468" y="46" width="72" height="30" rx="6" fill="#1e1b4b" stroke="#6366f1" stroke-width="1.5"/>
  <text x="504" y="65" text-anchor="middle" fill="#a5b4fc" font-size="10">VSCode</text>
  <line x1="490" y1="76" x2="400" y2="170" stroke="#6366f1" stroke-width="1" opacity="0.4"/>

  <rect x="548" y="60" width="72" height="30" rx="6" fill="#1e1b4b" stroke="#6366f1" stroke-width="1.5"/>
  <text x="584" y="79" text-anchor="middle" fill="#a5b4fc" font-size="10">Bedrock</text>
  <line x1="560" y1="90" x2="400" y2="185" stroke="#6366f1" stroke-width="1" opacity="0.4"/>

  <!-- Frameworks (left arc) -->
  <rect x="38" y="110" width="110" height="36" rx="6" fill="#0f2a1a" stroke="#4ade80" stroke-width="2"/>
  <text x="93" y="125" text-anchor="middle" fill="#4ade80" font-size="9" font-weight="700">@casys/</text>
  <text x="93" y="138" text-anchor="middle" fill="#4ade80" font-size="9" font-weight="700">mcp-server</text>
  <line x1="148" y1="128" x2="318" y2="192" stroke="#4ade80" stroke-width="1.5" opacity="0.5"/>

  <rect x="28" y="170" width="100" height="30" rx="6" fill="#1a1a0a" stroke="#fbbf24" stroke-width="1.5"/>
  <text x="78" y="189" text-anchor="middle" fill="#fbbf24" font-size="10">FastMCP</text>
  <line x1="128" y1="185" x2="318" y2="198" stroke="#fbbf24" stroke-width="1" opacity="0.4"/>

  <rect x="38" y="220" width="100" height="30" rx="6" fill="#1e293b" stroke="#94a3b8" stroke-width="1.5"/>
  <text x="88" y="239" text-anchor="middle" fill="#94a3b8" font-size="10">Official SDK</text>
  <line x1="138" y1="235" x2="318" y2="205" stroke="#94a3b8" stroke-width="1" opacity="0.3"/>

  <!-- Registries (right arc) -->
  <rect x="582" y="150" width="100" height="30" rx="6" fill="#1a0a2e" stroke="#a78bfa" stroke-width="1.5"/>
  <text x="632" y="169" text-anchor="middle" fill="#a78bfa" font-size="10">Smithery</text>
  <line x1="582" y1="168" x2="402" y2="195" stroke="#a78bfa" stroke-width="1" opacity="0.4"/>

  <rect x="590" y="200" width="92" height="30" rx="6" fill="#1a0a2e" stroke="#a78bfa" stroke-width="1.5"/>
  <text x="636" y="219" text-anchor="middle" fill="#a78bfa" font-size="10">Glama</text>
  <line x1="590" y1="215" x2="402" y2="202" stroke="#a78bfa" stroke-width="1" opacity="0.4"/>

  <rect x="582" y="250" width="100" height="30" rx="6" fill="#1a0a2e" stroke="#a78bfa" stroke-width="1.5"/>
  <text x="632" y="269" text-anchor="middle" fill="#a78bfa" font-size="10">npm / JSR</text>
  <line x1="582" y1="262" x2="402" y2="210" stroke="#a78bfa" stroke-width="1" opacity="0.4"/>

  <!-- Server ecosystem (bottom arc) -->
  <rect x="120" y="290" width="100" height="36" rx="6" fill="#0f2a1a" stroke="#4ade80" stroke-width="1.5"/>
  <text x="170" y="305" text-anchor="middle" fill="#4ade80" font-size="9" font-weight="600">@casys/</text>
  <text x="170" y="318" text-anchor="middle" fill="#4ade80" font-size="9" font-weight="600">mcp-bridge</text>
  <line x1="195" y1="290" x2="345" y2="240" stroke="#4ade80" stroke-width="1" opacity="0.4"/>

  <rect x="240" y="310" width="100" height="36" rx="6" fill="#0f2a1a" stroke="#4ade80" stroke-width="1.5"/>
  <text x="290" y="325" text-anchor="middle" fill="#4ade80" font-size="9" font-weight="600">@casys/</text>
  <text x="290" y="338" text-anchor="middle" fill="#4ade80" font-size="9" font-weight="600">mcp-erpnext</text>
  <line x1="300" y1="310" x2="355" y2="242" stroke="#4ade80" stroke-width="1" opacity="0.4"/>

  <rect x="360" y="310" width="80" height="36" rx="6" fill="#1a1a2e" stroke="#f59e0b" stroke-width="1.5"/>
  <text x="400" y="332" text-anchor="middle" fill="#fbbf24" font-size="9">10,000+</text>
  <text x="400" y="320" text-anchor="middle" fill="#fbbf24" font-size="9">Community</text>
  <line x1="395" y1="310" x2="365" y2="242" stroke="#f59e0b" stroke-width="1" opacity="0.3"/>

  <rect x="460" y="290" width="100" height="36" rx="6" fill="#0f2a1a" stroke="#4ade80" stroke-width="1.5"/>
  <text x="510" y="305" text-anchor="middle" fill="#4ade80" font-size="10" font-weight="600">PML</text>
  <text x="510" y="318" text-anchor="middle" fill="#4ade80" font-size="9">Gateway</text>
  <line x1="490" y1="290" x2="375" y2="240" stroke="#4ade80" stroke-width="1.5" opacity="0.5"/>

  <!-- Stats -->
  <text x="360" y="360" text-anchor="middle" fill="#64748b" font-size="10">Linux Foundation stewardship since 2025 — JSON-RPC 2.0 — Streamable HTTP</text>
</svg>