<svg xmlns="http://www.w3.org/2000/svg" viewBox="0 0 400 120" width="400" height="120">
  <!-- svg-source:excalidraw — mcp-architecture.excalidraw -->
  <defs>
    <marker id="ah-666666" viewBox="0 0 10 10" refX="10" refY="5" markerWidth="8" markerHeight="8" orient="auto-start-reverse"><path d="M0,0 L10,5 L0,10 Z" fill="#666666"/></marker>
  </defs>

  <rect x="0" y="0" width="400" height="120" fill="#08080a"/>
  <rect x="20" y="20" width="100" height="80" rx="8" fill="#1f1f23" stroke="#60a5fa" stroke-width="2"/>
  <text x="70" y="37" font-family='"Inter", "Segoe UI", system-ui, -apple-system, sans-serif' font-size="9" fill="#60a5fa" text-anchor="middle">Client (Agent)</text>
  <rect x="30" y="45" width="80" height="22" rx="4" fill="#2d2d35" stroke="#60a5fa" stroke-width="1"/>
  <text x="70" y="58" font-family='"Inter", "Segoe UI", system-ui, -apple-system, sans-serif' font-size="8" fill="#60a5fa" text-anchor="middle">Discovery</text>
  <rect x="30" y="72" width="80" height="22" rx="4" fill="#2d2d35" stroke="#60a5fa" stroke-width="1"/>
  <text x="70" y="85" font-family='"Inter", "Segoe UI", system-ui, -apple-system, sans-serif' font-size="8" fill="#60a5fa" text-anchor="middle">Invocation</text>
  <rect x="155" y="35" width="80" height="50" rx="8" fill="#1f1f23" stroke="#fbbf24" stroke-width="2"/>
  <text x="195" y="52" font-family='"Inter", "Segoe UI", system-ui, -apple-system, sans-serif' font-size="9" fill="#fbbf24" text-anchor="middle">Protocol</text>
  <rect x="165" y="58" width="60" height="20" rx="4" fill="#2d2d35" stroke="#fbbf24" stroke-width="1"/>
  <text x="195" y="69" font-family='"Inter", "Segoe UI", system-ui, -apple-system, sans-serif' font-size="7" fill="#fbbf24" text-anchor="middle">JSON-RPC 2.0</text>
  <rect x="270" y="20" width="110" height="80" rx="8" fill="#1f1f23" stroke="#4ade80" stroke-width="2"/>
  <text x="325" y="37" font-family='"Inter", "Segoe UI", system-ui, -apple-system, sans-serif' font-size="9" fill="#4ade80" text-anchor="middle">Server (Tool)</text>
  <rect x="280" y="45" width="90" height="22" rx="4" fill="#2d2d35" stroke="#4ade80" stroke-width="1"/>
  <text x="325" y="58" font-family='"Inter", "Segoe UI", system-ui, -apple-system, sans-serif' font-size="8" fill="#4ade80" text-anchor="middle">Tool Handlers</text>
  <rect x="280" y="72" width="90" height="22" rx="4" fill="#2d2d35" stroke="#4ade80" stroke-width="1"/>
  <text x="325" y="85" font-family='"Inter", "Segoe UI", system-ui, -apple-system, sans-serif' font-size="8" fill="#4ade80" text-anchor="middle">Resource Handlers</text>
  <path d="M125 55 L150 60" fill="none" stroke="#666666" stroke-width="2" stroke-linejoin="round" stroke-linecap="round" marker-end="url(#ah-666666)"/>
  <path d="M125 82 L150 70" fill="none" stroke="#666666" stroke-width="2" stroke-linejoin="round" stroke-linecap="round" marker-end="url(#ah-666666)"/>
  <path d="M240 58 L265 58" fill="none" stroke="#666666" stroke-width="2" stroke-linejoin="round" stroke-linecap="round" marker-end="url(#ah-666666)"/>
  <path d="M240 75 L265 80" fill="none" stroke="#666666" stroke-width="2" stroke-linejoin="round" stroke-linecap="round" marker-end="url(#ah-666666)"/>
</svg>