<svg xmlns="http://www.w3.org/2000/svg" viewBox="0 0 390 190" width="390" height="190">
  <!-- svg-source:excalidraw — mcp-without.excalidraw -->
  <defs>
    <marker id="ah-666666" viewBox="0 0 10 10" refX="10" refY="5" markerWidth="8" markerHeight="8" orient="auto-start-reverse"><path d="M0,0 L10,5 L0,10 Z" fill="#666666"/></marker>
  </defs>

  <rect x="0" y="0" width="390" height="190" fill="#08080a"/>
  <rect x="20" y="20" width="350" height="150" rx="12" fill="#1f1f23" stroke="#ef4444" stroke-width="2"/>
  <text x="190" y="39" font-family='"Inter", "Segoe UI", system-ui, -apple-system, sans-serif' font-size="11" fill="#ef4444" text-anchor="middle">Without MCP: N adapters</text>
  <rect x="40" y="85" width="70" height="35" rx="6" fill="#2d2d35" stroke="#60a5fa" stroke-width="2"/>
  <text x="75" y="105" font-family='"Inter", "Segoe UI", system-ui, -apple-system, sans-serif' font-size="10" fill="#60a5fa" text-anchor="middle">Your Tool</text>
  <rect x="150" y="50" width="80" height="25" rx="4" fill="#2d2d35" stroke="#fbbf24" stroke-width="1"/>
  <text x="190" y="64" font-family='"Inter", "Segoe UI", system-ui, -apple-system, sans-serif' font-size="8" fill="#fbbf24" text-anchor="middle">OpenAI Adapter</text>
  <rect x="150" y="85" width="95" height="25" rx="4" fill="#2d2d35" stroke="#fbbf24" stroke-width="1"/>
  <text x="197.5" y="99" font-family='"Inter", "Segoe UI", system-ui, -apple-system, sans-serif' font-size="8" fill="#fbbf24" text-anchor="middle">Anthropic Adapter</text>
  <rect x="150" y="120" width="80" height="25" rx="4" fill="#2d2d35" stroke="#fbbf24" stroke-width="1"/>
  <text x="190" y="134" font-family='"Inter", "Segoe UI", system-ui, -apple-system, sans-serif' font-size="8" fill="#fbbf24" text-anchor="middle">Google Adapter</text>
  <rect x="280" y="50" width="60" height="25" rx="4" fill="#2d2d35" stroke="#4ade80" stroke-width="2"/>
  <text x="310" y="65" font-family='"Inter", "Segoe UI", system-ui, -apple-system, sans-serif' font-size="9" fill="#4ade80" text-anchor="middle">OpenAI</text>
  <rect x="280" y="85" width="60" height="25" rx="4" fill="#2d2d35" stroke="#4ade80" stroke-width="2"/>
  <text x="310" y="100" font-family='"Inter", "Segoe UI", system-ui, -apple-system, sans-serif' font-size="9" fill="#4ade80" text-anchor="middle">Claude</text>
  <rect x="280" y="120" width="60" height="25" rx="4" fill="#2d2d35" stroke="#4ade80" stroke-width="2"/>
  <text x="310" y="135" font-family='"Inter", "Segoe UI", system-ui, -apple-system, sans-serif' font-size="9" fill="#4ade80" text-anchor="middle">Gemini</text>
  <path d="M115 95 L145 65" fill="none" stroke="#666666" stroke-width="1" stroke-linejoin="round" stroke-linecap="round" marker-end="url(#ah-666666)"/>
  <path d="M115 100 L145 100" fill="none" stroke="#666666" stroke-width="1" stroke-linejoin="round" stroke-linecap="round" marker-end="url(#ah-666666)"/>
  <path d="M115 105 L145 135" fill="none" stroke="#666666" stroke-width="1" stroke-linejoin="round" stroke-linecap="round" marker-end="url(#ah-666666)"/>
  <path d="M235 62 L275 62" fill="none" stroke="#666666" stroke-width="1" stroke-linejoin="round" stroke-linecap="round" marker-end="url(#ah-666666)"/>
  <path d="M250 97 L275 97" fill="none" stroke="#666666" stroke-width="1" stroke-linejoin="round" stroke-linecap="round" marker-end="url(#ah-666666)"/>
  <path d="M235 132 L275 132" fill="none" stroke="#666666" stroke-width="1" stroke-linejoin="round" stroke-linecap="round" marker-end="url(#ah-666666)"/>
</svg>