<svg xmlns="http://www.w3.org/2000/svg" viewBox="0 0 360 170" width="360" height="170">
  <!-- svg-source:excalidraw — mcp-with.excalidraw -->
  <defs>
    <marker id="ah-4ade80" viewBox="0 0 10 10" refX="10" refY="5" markerWidth="8" markerHeight="8" orient="auto-start-reverse"><path d="M0,0 L10,5 L0,10 Z" fill="#4ade80"/></marker>
    <marker id="ah-a78bfa" viewBox="0 0 10 10" refX="10" refY="5" markerWidth="8" markerHeight="8" orient="auto-start-reverse"><path d="M0,0 L10,5 L0,10 Z" fill="#a78bfa"/></marker>
  </defs>

  <rect x="0" y="0" width="360" height="170" fill="#08080a"/>
  <rect x="20" y="20" width="320" height="130" rx="12" fill="#1f1f23" stroke="#4ade80" stroke-width="2"/>
  <text x="180" y="39" font-family='"Inter", "Segoe UI", system-ui, -apple-system, sans-serif' font-size="11" fill="#4ade80" text-anchor="middle">With MCP: 1 interface</text>
  <rect x="40" y="75" width="70" height="35" rx="6" fill="#2d2d35" stroke="#60a5fa" stroke-width="2"/>
  <text x="75" y="95" font-family='"Inter", "Segoe UI", system-ui, -apple-system, sans-serif' font-size="10" fill="#60a5fa" text-anchor="middle">Your Tool</text>
  <rect x="145" y="65" width="70" height="55" rx="6" fill="#2d2d35" stroke="#fbbf24" stroke-width="2"/>
  <text font-family='"Inter", "Segoe UI", system-ui, -apple-system, sans-serif' font-size="10" fill="#fbbf24" text-anchor="middle" y="95">
    <tspan x="180">MCP</tspan>
    <tspan x="180" dy="13">Protocol</tspan>
  </text>
  <rect x="250" y="50" width="70" height="25" rx="4" fill="#2d2d35" stroke="#a78bfa" stroke-width="1"/>
  <text x="285" y="65" font-family='"Inter", "Segoe UI", system-ui, -apple-system, sans-serif' font-size="9" fill="#a78bfa" text-anchor="middle">Any LLM</text>
  <rect x="250" y="80" width="70" height="25" rx="4" fill="#2d2d35" stroke="#a78bfa" stroke-width="1"/>
  <text x="285" y="95" font-family='"Inter", "Segoe UI", system-ui, -apple-system, sans-serif' font-size="9" fill="#a78bfa" text-anchor="middle">Any Agent</text>
  <rect x="250" y="110" width="70" height="25" rx="4" fill="#2d2d35" stroke="#a78bfa" stroke-width="1"/>
  <text x="285" y="125" font-family='"Inter", "Segoe UI", system-ui, -apple-system, sans-serif' font-size="9" fill="#a78bfa" text-anchor="middle">Any Client</text>
  <path d="M115 92 L140 92" fill="none" stroke="#4ade80" stroke-width="2" stroke-linejoin="round" stroke-linecap="round" marker-end="url(#ah-4ade80)"/>
  <path d="M220 75 L245 65" fill="none" stroke="#a78bfa" stroke-width="1" stroke-linejoin="round" stroke-linecap="round" marker-end="url(#ah-a78bfa)"/>
  <path d="M220 92 L245 92" fill="none" stroke="#a78bfa" stroke-width="1" stroke-linejoin="round" stroke-linecap="round" marker-end="url(#ah-a78bfa)"/>
  <path d="M220 110 L245 120" fill="none" stroke="#a78bfa" stroke-width="1" stroke-linejoin="round" stroke-linecap="round" marker-end="url(#ah-a78bfa)"/>
</svg>