<svg xmlns="http://www.w3.org/2000/svg" viewBox="0 0 570 150" width="570" height="150">
  <!-- svg-source:excalidraw — rag-vector.excalidraw -->
  <defs>
    <marker id="ah-666666" viewBox="0 0 10 10" refX="10" refY="5" markerWidth="8" markerHeight="8" orient="auto-start-reverse"><path d="M0,0 L10,5 L0,10 Z" fill="#666666"/></marker>
  </defs>

  <rect x="0" y="0" width="570" height="150" fill="#08080a"/>
  <rect x="20" y="50" width="120" height="40" rx="6" fill="#2d2d35" stroke="#4ade80" stroke-width="2"/>
  <text x="80" y="69" font-family='"Inter", "Segoe UI", system-ui, -apple-system, sans-serif' font-size="9" fill="#f0ede8" text-anchor="middle">Query: Deploy to AWS</text>
  <rect x="180" y="50" width="80" height="40" rx="6" fill="#2d2d35" stroke="#60a5fa" stroke-width="2"/>
  <text x="220" y="72" font-family='"Inter", "Segoe UI", system-ui, -apple-system, sans-serif' font-size="10" fill="#f0ede8" text-anchor="middle">Embedding</text>
  <rect x="300" y="50" width="100" height="40" rx="6" fill="#2d2d35" stroke="#fbbf24" stroke-width="2"/>
  <text x="350" y="72" font-family='"Inter", "Segoe UI", system-ui, -apple-system, sans-serif' font-size="10" fill="#f0ede8" text-anchor="middle">Similarity Search</text>
  <rect x="440" y="20" width="110" height="30" rx="4" fill="#2d2d35" stroke="#a78bfa" stroke-width="1"/>
  <text x="495" y="38" font-family='"Inter", "Segoe UI", system-ui, -apple-system, sans-serif' font-size="10" fill="#4ade80" text-anchor="middle">aws_deploy: 0.92</text>
  <rect x="440" y="60" width="110" height="30" rx="4" fill="#2d2d35" stroke="#a78bfa" stroke-width="1"/>
  <text x="495" y="78" font-family='"Inter", "Segoe UI", system-ui, -apple-system, sans-serif' font-size="10" fill="#60a5fa" text-anchor="middle">aws_config: 0.87</text>
  <rect x="440" y="100" width="110" height="30" rx="4" fill="#2d2d35" stroke="#a78bfa" stroke-width="1"/>
  <text x="495" y="118" font-family='"Inter", "Segoe UI", system-ui, -apple-system, sans-serif' font-size="10" fill="#666666" text-anchor="middle">docker_push: 0.71</text>
  <path d="M145 70 L175 70" fill="none" stroke="#666666" stroke-width="2" stroke-linejoin="round" stroke-linecap="round" marker-end="url(#ah-666666)"/>
  <path d="M265 70 L295 70" fill="none" stroke="#666666" stroke-width="2" stroke-linejoin="round" stroke-linecap="round" marker-end="url(#ah-666666)"/>
  <path d="M405 65 L435 35" fill="none" stroke="#666666" stroke-width="2" stroke-linejoin="round" stroke-linecap="round" marker-end="url(#ah-666666)"/>
  <path d="M405 70 L435 75" fill="none" stroke="#666666" stroke-width="2" stroke-linejoin="round" stroke-linecap="round" marker-end="url(#ah-666666)"/>
  <path d="M405 75 L435 115" fill="none" stroke="#666666" stroke-width="2" stroke-linejoin="round" stroke-linecap="round" marker-end="url(#ah-666666)"/>
</svg>