<svg xmlns="http://www.w3.org/2000/svg" viewBox="0 0 480 120" width="480" height="120">
  <!-- svg-source:excalidraw — rag-graph-evolution.excalidraw -->
  <defs>
    <marker id="ah-fbbf24" viewBox="0 0 10 10" refX="10" refY="5" markerWidth="8" markerHeight="8" orient="auto-start-reverse"><path d="M0,0 L10,5 L0,10 Z" fill="#fbbf24"/></marker>
    <marker id="ah-4ade80" viewBox="0 0 10 10" refX="10" refY="5" markerWidth="8" markerHeight="8" orient="auto-start-reverse"><path d="M0,0 L10,5 L0,10 Z" fill="#4ade80"/></marker>
  </defs>

  <rect x="0" y="0" width="480" height="120" fill="#08080a"/>
  <rect x="20" y="20" width="100" height="80" rx="8" fill="#1f1f23" stroke="#60a5fa" stroke-width="2"/>
  <text x="70" y="37" font-family="\"Inter\", \"Segoe UI\", system-ui, -apple-system, sans-serif" font-size="9" fill="#60a5fa" text-anchor="middle">Standard Graph</text>
  <text x="70.5" y="48" font-family="\"Inter\", \"Segoe UI\", system-ui, -apple-system, sans-serif" font-size="8" fill="#666666" text-anchor="middle">(pairs only)</text>
  <ellipse cx="46" cy="71" rx="11" ry="11" fill="#2d2d35" stroke="#f0ede8" stroke-width="1"/>
  <text x="46" y="74" font-family="\"Inter\", \"Segoe UI\", system-ui, -apple-system, sans-serif" font-size="9" fill="#f0ede8" text-anchor="middle">A</text>
  <path d="M60 71 L80 71" fill="none" stroke="#666666" stroke-width="2" stroke-linejoin="round" stroke-linecap="round"/>
  <ellipse cx="94" cy="71" rx="11" ry="11" fill="#2d2d35" stroke="#f0ede8" stroke-width="1"/>
  <text x="94" y="74" font-family="\"Inter\", \"Segoe UI\", system-ui, -apple-system, sans-serif" font-size="9" fill="#f0ede8" text-anchor="middle">B</text>
  <path d="M130 60 L160 60" fill="none" stroke="#fbbf24" stroke-width="2" stroke-linejoin="round" stroke-linecap="round" marker-end="url(#ah-fbbf24)"/>
  <rect x="170" y="20" width="110" height="80" rx="8" fill="#1f1f23" stroke="#fbbf24" stroke-width="2"/>
  <text x="225" y="37" font-family="\"Inter\", \"Segoe UI\", system-ui, -apple-system, sans-serif" font-size="9" fill="#fbbf24" text-anchor="middle">Hypergraph</text>
  <text x="225" y="48" font-family="\"Inter\", \"Segoe UI\", system-ui, -apple-system, sans-serif" font-size="8" fill="#666666" text-anchor="middle">(N nodes per edge)</text>
  <rect x="180" y="55" width="90" height="35" rx="4" fill="#2a2520" stroke="#fbbf24" stroke-width="1"/>
  <ellipse cx="194" cy="71" rx="9" ry="9" fill="#2d2d35" stroke="#f0ede8" stroke-width="1"/>
  <text x="194" y="73" font-family="\"Inter\", \"Segoe UI\", system-ui, -apple-system, sans-serif" font-size="7" fill="#f0ede8" text-anchor="middle">A</text>
  <ellipse cx="214" cy="71" rx="9" ry="9" fill="#2d2d35" stroke="#f0ede8" stroke-width="1"/>
  <text x="214" y="73" font-family="\"Inter\", \"Segoe UI\", system-ui, -apple-system, sans-serif" font-size="7" fill="#f0ede8" text-anchor="middle">B</text>
  <ellipse cx="234" cy="71" rx="9" ry="9" fill="#2d2d35" stroke="#f0ede8" stroke-width="1"/>
  <text x="234" y="73" font-family="\"Inter\", \"Segoe UI\", system-ui, -apple-system, sans-serif" font-size="7" fill="#f0ede8" text-anchor="middle">C</text>
  <ellipse cx="254" cy="71" rx="9" ry="9" fill="#2d2d35" stroke="#f0ede8" stroke-width="1"/>
  <text x="254" y="73" font-family="\"Inter\", \"Segoe UI\", system-ui, -apple-system, sans-serif" font-size="7" fill="#f0ede8" text-anchor="middle">D</text>
  <path d="M290 60 L320 60" fill="none" stroke="#4ade80" stroke-width="2" stroke-linejoin="round" stroke-linecap="round" marker-end="url(#ah-4ade80)"/>
  <rect x="330" y="20" width="130" height="80" rx="8" fill="#1f1f23" stroke="#4ade80" stroke-width="2"/>
  <text x="395" y="37" font-family="\"Inter\", \"Segoe UI\", system-ui, -apple-system, sans-serif" font-size="9" fill="#4ade80" text-anchor="middle">SuperHyperGraph</text>
  <text x="395" y="48" font-family="\"Inter\", \"Segoe UI\", system-ui, -apple-system, sans-serif" font-size="8" fill="#666666" text-anchor="middle">(recursive nesting)</text>
  <rect x="340" y="55" width="110" height="38" rx="4" fill="#1a2520" stroke="#4ade80" stroke-width="1"/>
  <rect x="348" y="62" width="40" height="24" rx="3" fill="#2d2d35" stroke="#a78bfa" stroke-width="1"/>
  <text x="368" y="76" font-family="\"Inter\", \"Segoe UI\", system-ui, -apple-system, sans-serif" font-size="8" fill="#a78bfa" text-anchor="middle">A,B</text>
  <rect x="395" y="62" width="48" height="24" rx="3" fill="#2d2d35" stroke="#a78bfa" stroke-width="1"/>
  <text x="405" y="73" font-family="\"Inter\", \"Segoe UI\", system-ui, -apple-system, sans-serif" font-size="7" fill="#f0ede8" text-anchor="middle">C</text>
  <rect x="412" y="65" width="26" height="16" rx="2" fill="#2a2028" stroke="#f472b6" stroke-width="1"/>
  <text x="425" y="75" font-family="\"Inter\", \"Segoe UI\", system-ui, -apple-system, sans-serif" font-size="7" fill="#f472b6" text-anchor="middle">D,E</text>
</svg>