<svg xmlns="http://www.w3.org/2000/svg" viewBox="0 0 390 130" width="390" height="130">
  <!-- svg-source:excalidraw — shg-edge-constraints.excalidraw -->
  <defs>
    <marker id="ah-fbbf24" viewBox="0 0 10 10" refX="10" refY="5" markerWidth="8" markerHeight="8" orient="auto-start-reverse"><path d="M0,0 L10,5 L0,10 Z" fill="#fbbf24"/></marker>
    <marker id="ah-a78bfa" viewBox="0 0 10 10" refX="10" refY="5" markerWidth="8" markerHeight="8" orient="auto-start-reverse"><path d="M0,0 L10,5 L0,10 Z" fill="#a78bfa"/></marker>
    <marker id="ah-4ade80" viewBox="0 0 10 10" refX="10" refY="5" markerWidth="8" markerHeight="8" orient="auto-start-reverse"><path d="M0,0 L10,5 L0,10 Z" fill="#4ade80"/></marker>
  </defs>

  <rect x="0" y="0" width="390" height="130" fill="#08080a"/>
  <rect x="20" y="20" width="160" height="90" rx="8" fill="#1f1f23" stroke="#ef4444" stroke-width="2"/>
  <text x="100" y="38" font-family='"Inter", "Segoe UI", system-ui, -apple-system, sans-serif' font-size="10" fill="#ef4444" text-anchor="middle">No Cycles</text>
  <rect x="35" y="48" width="50" height="22" rx="4" fill="#2d2d35" stroke="#fbbf24" stroke-width="1"/>
  <text x="60" y="61" font-family='"Inter", "Segoe UI", system-ui, -apple-system, sans-serif' font-size="8" fill="#fbbf24" text-anchor="middle">Parent</text>
  <rect x="110" y="48" width="50" height="22" rx="4" fill="#2d2d35" stroke="#60a5fa" stroke-width="1"/>
  <text x="135" y="61" font-family='"Inter", "Segoe UI", system-ui, -apple-system, sans-serif' font-size="8" fill="#60a5fa" text-anchor="middle">Child</text>
  <path d="M90 59 L105 59" fill="none" stroke="#fbbf24" stroke-width="2" stroke-linejoin="round" stroke-linecap="round" marker-end="url(#ah-fbbf24)"/>
  <text x="98" y="49" font-family='"Inter", "Segoe UI", system-ui, -apple-system, sans-serif' font-size="7" fill="#fbbf24" text-anchor="middle">contains</text>
  <rect x="35" y="78" width="30" height="22" rx="4" fill="#2d2d35" stroke="#a78bfa" stroke-width="1"/>
  <text x="50" y="91" font-family='"Inter", "Segoe UI", system-ui, -apple-system, sans-serif' font-size="8" fill="#a78bfa" text-anchor="middle">A</text>
  <rect x="85" y="78" width="30" height="22" rx="4" fill="#2d2d35" stroke="#a78bfa" stroke-width="1"/>
  <text x="100" y="91" font-family='"Inter", "Segoe UI", system-ui, -apple-system, sans-serif' font-size="8" fill="#a78bfa" text-anchor="middle">B</text>
  <path d="M68 89 L80 89" fill="none" stroke="#a78bfa" stroke-width="2" stroke-linejoin="round" stroke-linecap="round" marker-end="url(#ah-a78bfa)"/>
  <text x="135" y="90" font-family='"Inter", "Segoe UI", system-ui, -apple-system, sans-serif' font-size="7" fill="#a78bfa" text-anchor="middle">depends</text>
  <rect x="200" y="20" width="170" height="90" rx="8" fill="#1f1f23" stroke="#4ade80" stroke-width="2"/>
  <text x="285" y="38" font-family='"Inter", "Segoe UI", system-ui, -apple-system, sans-serif' font-size="10" fill="#4ade80" text-anchor="middle">Cycles OK</text>
  <rect x="215" y="48" width="30" height="22" rx="4" fill="#2d2d35" stroke="#60a5fa" stroke-width="1"/>
  <text x="230" y="61" font-family='"Inter", "Segoe UI", system-ui, -apple-system, sans-serif' font-size="8" fill="#60a5fa" text-anchor="middle">X</text>
  <rect x="275" y="48" width="30" height="22" rx="4" fill="#2d2d35" stroke="#60a5fa" stroke-width="1"/>
  <text x="290" y="61" font-family='"Inter", "Segoe UI", system-ui, -apple-system, sans-serif' font-size="8" fill="#60a5fa" text-anchor="middle">Y</text>
  <path d="M248 55 L270 55" fill="none" stroke="#4ade80" stroke-width="2" stroke-linejoin="round" stroke-linecap="round" marker-end="url(#ah-4ade80)" marker-start="url(#ah-4ade80)"/>
  <text x="330" y="60" font-family='"Inter", "Segoe UI", system-ui, -apple-system, sans-serif' font-size="7" fill="#4ade80" text-anchor="middle">provides</text>
  <rect x="215" y="78" width="25" height="22" rx="4" fill="#2d2d35" stroke="#fbbf24" stroke-width="1"/>
  <text x="227" y="91" font-family='"Inter", "Segoe UI", system-ui, -apple-system, sans-serif' font-size="8" fill="#fbbf24" text-anchor="middle">1</text>
  <rect x="250" y="78" width="25" height="22" rx="4" fill="#2d2d35" stroke="#fbbf24" stroke-width="1"/>
  <text x="262" y="91" font-family='"Inter", "Segoe UI", system-ui, -apple-system, sans-serif' font-size="8" fill="#fbbf24" text-anchor="middle">2</text>
  <rect x="285" y="78" width="25" height="22" rx="4" fill="#2d2d35" stroke="#fbbf24" stroke-width="1"/>
  <text x="297" y="91" font-family='"Inter", "Segoe UI", system-ui, -apple-system, sans-serif' font-size="8" fill="#fbbf24" text-anchor="middle">3</text>
  <path d="M242 89 L247 89" fill="none" stroke="#fbbf24" stroke-width="1" stroke-linejoin="round" stroke-linecap="round" marker-end="url(#ah-fbbf24)"/>
  <path d="M277 89 L282 89" fill="none" stroke="#fbbf24" stroke-width="1" stroke-linejoin="round" stroke-linecap="round" marker-end="url(#ah-fbbf24)"/>
  <path d="M307 95 L312 110 L222 110 L222 95" fill="none" stroke="#fbbf24" stroke-width="1" stroke-dasharray="8 4" stroke-linejoin="round" stroke-linecap="round" marker-end="url(#ah-fbbf24)"/>
  <text x="335" y="90" font-family='"Inter", "Segoe UI", system-ui, -apple-system, sans-serif' font-size="7" fill="#fbbf24" text-anchor="middle">retry</text>
</svg>