<svg xmlns="http://www.w3.org/2000/svg" viewBox="0 0 430 120" width="430" height="120">
  <!-- svg-source:excalidraw — shg-evolution.excalidraw -->
  <defs>
    <marker id="ah-666666" viewBox="0 0 10 10" refX="10" refY="5" markerWidth="8" markerHeight="8" orient="auto-start-reverse"><path d="M0,0 L10,5 L0,10 Z" fill="#666666"/></marker>
  </defs>

  <rect x="0" y="0" width="430" height="120" fill="#08080a"/>
  <rect x="20" y="20" width="100" height="80" rx="8" fill="#1f1f23" stroke="#60a5fa" stroke-width="2"/>
  <text x="70" y="38" font-family="\"Inter\", \"Segoe UI\", system-ui, -apple-system, sans-serif" font-size="10" fill="#60a5fa" text-anchor="middle">Graph</text>
  <ellipse cx="45" cy="65" rx="10" ry="10" fill="#2d2d35" stroke="#f0ede8" stroke-width="1"/>
  <text x="45" y="68" font-family="\"Inter\", \"Segoe UI\", system-ui, -apple-system, sans-serif" font-size="8" fill="#f0ede8" text-anchor="middle">A</text>
  <ellipse cx="70" cy="80" rx="10" ry="10" fill="#2d2d35" stroke="#f0ede8" stroke-width="1"/>
  <text x="70" y="83" font-family="\"Inter\", \"Segoe UI\", system-ui, -apple-system, sans-serif" font-size="8" fill="#f0ede8" text-anchor="middle">B</text>
  <ellipse cx="95" cy="65" rx="10" ry="10" fill="#2d2d35" stroke="#f0ede8" stroke-width="1"/>
  <text x="95" y="68" font-family="\"Inter\", \"Segoe UI\", system-ui, -apple-system, sans-serif" font-size="8" fill="#f0ede8" text-anchor="middle">C</text>
  <path d="M55 70 L63 75" fill="none" stroke="#666666" stroke-width="1" stroke-linejoin="round" stroke-linecap="round"/>
  <path d="M78 78 L88 70" fill="none" stroke="#666666" stroke-width="1" stroke-linejoin="round" stroke-linecap="round"/>
  <rect x="150" y="20" width="110" height="80" rx="8" fill="#1f1f23" stroke="#fbbf24" stroke-width="2"/>
  <text x="204.5" y="38" font-family="\"Inter\", \"Segoe UI\", system-ui, -apple-system, sans-serif" font-size="10" fill="#fbbf24" text-anchor="middle">Hypergraph</text>
  <ellipse cx="172.5" cy="57.5" rx="7.5" ry="7.5" fill="#2d2d35" stroke="#f0ede8" stroke-width="1"/>
  <text x="173" y="61" font-family="\"Inter\", \"Segoe UI\", system-ui, -apple-system, sans-serif" font-size="7" fill="#f0ede8" text-anchor="middle">A</text>
  <ellipse cx="192.5" cy="57.5" rx="7.5" ry="7.5" fill="#2d2d35" stroke="#f0ede8" stroke-width="1"/>
  <text x="193" y="61" font-family="\"Inter\", \"Segoe UI\", system-ui, -apple-system, sans-serif" font-size="7" fill="#f0ede8" text-anchor="middle">B</text>
  <ellipse cx="212.5" cy="57.5" rx="7.5" ry="7.5" fill="#2d2d35" stroke="#f0ede8" stroke-width="1"/>
  <text x="213" y="61" font-family="\"Inter\", \"Segoe UI\", system-ui, -apple-system, sans-serif" font-size="7" fill="#f0ede8" text-anchor="middle">C</text>
  <path d="M202.5 72l12.5 9 -12.5 9 -12.5 -9Z" fill="#2d2d35" stroke="#fbbf24" stroke-width="1" stroke-linejoin="round"/>
  <text x="202.5" y="83" font-family="\"Inter\", \"Segoe UI\", system-ui, -apple-system, sans-serif" font-size="7" fill="#fbbf24" text-anchor="middle">H</text>
  <path d="M172 67 L192 77" fill="none" stroke="#666666" stroke-width="1" stroke-dasharray="8 4" stroke-linejoin="round" stroke-linecap="round"/>
  <path d="M192 67 L197 72" fill="none" stroke="#666666" stroke-width="1" stroke-dasharray="8 4" stroke-linejoin="round" stroke-linecap="round"/>
  <path d="M212 67 L207 75" fill="none" stroke="#666666" stroke-width="1" stroke-dasharray="8 4" stroke-linejoin="round" stroke-linecap="round"/>
  <rect x="290" y="20" width="120" height="80" rx="8" fill="#1f1f23" stroke="#4ade80" stroke-width="2"/>
  <text x="350" y="38" font-family="\"Inter\", \"Segoe UI\", system-ui, -apple-system, sans-serif" font-size="10" fill="#4ade80" text-anchor="middle">SuperHyperGraph</text>
  <rect x="305" y="50" width="30" height="18" rx="2" fill="#2d2d35" stroke="#60a5fa" stroke-width="1"/>
  <text x="320.5" y="61" font-family="\"Inter\", \"Segoe UI\", system-ui, -apple-system, sans-serif" font-size="7" fill="#60a5fa" text-anchor="middle">Tool</text>
  <rect x="305" y="75" width="30" height="18" rx="2" fill="#2d2d35" stroke="#60a5fa" stroke-width="1"/>
  <text x="320.5" y="86" font-family="\"Inter\", \"Segoe UI\", system-ui, -apple-system, sans-serif" font-size="7" fill="#60a5fa" text-anchor="middle">Tool</text>
  <rect x="350" y="60" width="25" height="18" rx="2" fill="#2d2d35" stroke="#fbbf24" stroke-width="1"/>
  <text x="363" y="71" font-family="\"Inter\", \"Segoe UI\", system-ui, -apple-system, sans-serif" font-size="7" fill="#fbbf24" text-anchor="middle">Cap</text>
  <rect x="385" y="60" width="20" height="18" rx="2" fill="#2d2d35" stroke="#a78bfa" stroke-width="1"/>
  <text x="395" y="71" font-family="\"Inter\", \"Segoe UI\", system-ui, -apple-system, sans-serif" font-size="7" fill="#a78bfa" text-anchor="middle">M</text>
  <path d="M340 60 L347 65" fill="none" stroke="#666666" stroke-width="1" stroke-linejoin="round" stroke-linecap="round" marker-end="url(#ah-666666)"/>
  <path d="M340 82 L347 74" fill="none" stroke="#666666" stroke-width="1" stroke-linejoin="round" stroke-linecap="round" marker-end="url(#ah-666666)"/>
  <path d="M378 69 L383 69" fill="none" stroke="#666666" stroke-width="1" stroke-linejoin="round" stroke-linecap="round" marker-end="url(#ah-666666)"/>
  <text x="135" y="65" font-family="\"Inter\", \"Segoe UI\", system-ui, -apple-system, sans-serif" font-size="10" fill="#fbbf24" text-anchor="middle">+N</text>
  <text x="275" y="64" font-family="\"Inter\", \"Segoe UI\", system-ui, -apple-system, sans-serif" font-size="9" fill="#4ade80" text-anchor="middle">+nest</text>
</svg>