<svg xmlns="http://www.w3.org/2000/svg" viewBox="0 0 420 210" width="420" height="210">
  <!-- svg-source:excalidraw — shg-skill-tree.excalidraw -->
  <defs>
    <marker id="ah-666666" viewBox="0 0 10 10" refX="10" refY="5" markerWidth="8" markerHeight="8" orient="auto-start-reverse"><path d="M0,0 L10,5 L0,10 Z" fill="#666666"/></marker>
  </defs>

  <rect x="0" y="0" width="420" height="210" fill="#08080a"/>
  <rect x="20" y="20" width="380" height="170" rx="12" fill="#1f1f23" stroke="#a78bfa" stroke-width="2"/>
  <text x="200" y="39" font-family="\"Inter\", \"Segoe UI\", system-ui, -apple-system, sans-serif" font-size="11" fill="#a78bfa" text-anchor="middle">Release Process</text>
  <rect x="35" y="50" width="90" height="60" rx="6" fill="#2a2520" stroke="#fbbf24" stroke-width="1"/>
  <text x="80" y="64" font-family="\"Inter\", \"Segoe UI\", system-ui, -apple-system, sans-serif" font-size="9" fill="#fbbf24" text-anchor="middle">Git</text>
  <rect x="45" y="70" width="35" height="18" rx="3" fill="#2d2d35" stroke="#60a5fa" stroke-width="1"/>
  <text x="63" y="81" font-family="\"Inter\", \"Segoe UI\", system-ui, -apple-system, sans-serif" font-size="7" fill="#60a5fa" text-anchor="middle">commit</text>
  <rect x="85" y="70" width="30" height="18" rx="3" fill="#2d2d35" stroke="#60a5fa" stroke-width="1"/>
  <text x="100" y="81" font-family="\"Inter\", \"Segoe UI\", system-ui, -apple-system, sans-serif" font-size="7" fill="#60a5fa" text-anchor="middle">push</text>
  <path d="M82 79 L82 79" fill="none" stroke="#666666" stroke-width="1" stroke-linejoin="round" stroke-linecap="round" marker-end="url(#ah-666666)"/>
  <rect x="140" y="50" width="90" height="60" rx="6" fill="#2a2520" stroke="#fbbf24" stroke-width="1"/>
  <text x="185" y="64" font-family="\"Inter\", \"Segoe UI\", system-ui, -apple-system, sans-serif" font-size="9" fill="#fbbf24" text-anchor="middle">Tests</text>
  <rect x="150" y="70" width="30" height="18" rx="3" fill="#2d2d35" stroke="#60a5fa" stroke-width="1"/>
  <text x="165" y="81" font-family="\"Inter\", \"Segoe UI\", system-ui, -apple-system, sans-serif" font-size="7" fill="#60a5fa" text-anchor="middle">jest</text>
  <rect x="185" y="70" width="35" height="18" rx="3" fill="#2d2d35" stroke="#60a5fa" stroke-width="1"/>
  <text x="203" y="81" font-family="\"Inter\", \"Segoe UI\", system-ui, -apple-system, sans-serif" font-size="7" fill="#60a5fa" text-anchor="middle">coverage</text>
  <path d="M182 79 L182 79" fill="none" stroke="#666666" stroke-width="1" stroke-linejoin="round" stroke-linecap="round" marker-end="url(#ah-666666)"/>
  <rect x="245" y="50" width="140" height="130" rx="6" fill="#2a2520" stroke="#fbbf24" stroke-width="1"/>
  <text x="315" y="64" font-family="\"Inter\", \"Segoe UI\", system-ui, -apple-system, sans-serif" font-size="9" fill="#fbbf24" text-anchor="middle">Deploy</text>
  <rect x="255" y="70" width="80" height="50" rx="4" fill="#1a2520" stroke="#4ade80" stroke-width="1"/>
  <text x="295" y="83" font-family="\"Inter\", \"Segoe UI\", system-ui, -apple-system, sans-serif" font-size="8" fill="#4ade80" text-anchor="middle">Docker</text>
  <rect x="265" y="90" width="28" height="16" rx="2" fill="#2d2d35" stroke="#60a5fa" stroke-width="1"/>
  <text x="279" y="100" font-family="\"Inter\", \"Segoe UI\", system-ui, -apple-system, sans-serif" font-size="6" fill="#60a5fa" text-anchor="middle">build</text>
  <rect x="298" y="90" width="28" height="16" rx="2" fill="#2d2d35" stroke="#60a5fa" stroke-width="1"/>
  <text x="312" y="100" font-family="\"Inter\", \"Segoe UI\", system-ui, -apple-system, sans-serif" font-size="6" fill="#60a5fa" text-anchor="middle">push</text>
  <rect x="345" y="90" width="32" height="16" rx="2" fill="#2d2d35" stroke="#60a5fa" stroke-width="1"/>
  <text x="361" y="100" font-family="\"Inter\", \"Segoe UI\", system-ui, -apple-system, sans-serif" font-size="6" fill="#60a5fa" text-anchor="middle">ecs_up</text>
  <path d="M295 98 L295 98" fill="none" stroke="#666666" stroke-width="1" stroke-linejoin="round" stroke-linecap="round" marker-end="url(#ah-666666)"/>
  <path d="M130 90 L240 150" fill="none" stroke="#666666" stroke-width="1" stroke-linejoin="round" stroke-linecap="round" marker-end="url(#ah-666666)"/>
  <path d="M235 90 L240 150" fill="none" stroke="#666666" stroke-width="1" stroke-linejoin="round" stroke-linecap="round" marker-end="url(#ah-666666)"/>
  <path d="M340 105 L340 105" fill="none" stroke="#666666" stroke-width="1" stroke-linejoin="round" stroke-linecap="round" marker-end="url(#ah-666666)"/>
</svg>