<svg xmlns="http://www.w3.org/2000/svg" viewBox="0 0 380 200" width="380" height="200">
  <!-- svg-source:excalidraw — spec-speculative.excalidraw -->
  <defs>
    <marker id="ah-666666" viewBox="0 0 10 10" refX="10" refY="5" markerWidth="8" markerHeight="8" orient="auto-start-reverse"><path d="M0,0 L10,5 L0,10 Z" fill="#666666"/></marker>
    <marker id="ah-fbbf24" viewBox="0 0 10 10" refX="10" refY="5" markerWidth="8" markerHeight="8" orient="auto-start-reverse"><path d="M0,0 L10,5 L0,10 Z" fill="#fbbf24"/></marker>
    <marker id="ah-ef4444" viewBox="0 0 10 10" refX="10" refY="5" markerWidth="8" markerHeight="8" orient="auto-start-reverse"><path d="M0,0 L10,5 L0,10 Z" fill="#ef4444"/></marker>
  </defs>

  <rect x="0" y="0" width="380" height="200" fill="#08080a"/>
  <rect x="20" y="20" width="340" height="160" rx="12" fill="#1f1f23" stroke="#4ade80" stroke-width="2"/>
  <text x="190" y="39" font-family='"Inter", "Segoe UI", system-ui, -apple-system, sans-serif' font-size="11" fill="#4ade80" text-anchor="middle">Speculative (Fast)</text>
  <rect x="40" y="80" width="60" height="35" rx="6" fill="#2d2d35" stroke="#60a5fa" stroke-width="2"/>
  <text x="70" y="100" font-family='"Inter", "Segoe UI", system-ui, -apple-system, sans-serif' font-size="10" fill="#f0ede8" text-anchor="middle">Task A</text>
  <rect x="140" y="80" width="60" height="35" rx="6" fill="#2d2d35" stroke="#60a5fa" stroke-width="2"/>
  <text x="170" y="100" font-family='"Inter", "Segoe UI", system-ui, -apple-system, sans-serif' font-size="10" fill="#f0ede8" text-anchor="middle">Task B</text>
  <rect x="140" y="50" width="80" height="25" rx="4" fill="#2d2d35" stroke="#fbbf24" stroke-width="1"/>
  <text x="180" y="65" font-family='"Inter", "Segoe UI", system-ui, -apple-system, sans-serif' font-size="9" fill="#fbbf24" text-anchor="middle">Speculative C</text>
  <rect x="140" y="120" width="80" height="25" rx="4" fill="#2d2d35" stroke="#fbbf24" stroke-width="1"/>
  <text x="180" y="135" font-family='"Inter", "Segoe UI", system-ui, -apple-system, sans-serif' font-size="9" fill="#fbbf24" text-anchor="middle">Speculative D</text>
  <rect x="260" y="80" width="80" height="35" rx="6" fill="#2d2d35" stroke="#4ade80" stroke-width="2"/>
  <text x="300" y="100" font-family='"Inter", "Segoe UI", system-ui, -apple-system, sans-serif' font-size="10" fill="#4ade80" text-anchor="middle">Confirm C ✓</text>
  <rect x="260" y="145" width="60" height="25" rx="4" fill="#2d2d35" stroke="#ef4444" stroke-width="1"/>
  <text x="290" y="160" font-family='"Inter", "Segoe UI", system-ui, -apple-system, sans-serif' font-size="9" fill="#ef4444" text-anchor="middle">Discard</text>
  <path d="M105 97 L135 97" fill="none" stroke="#666666" stroke-width="2" stroke-linejoin="round" stroke-linecap="round" marker-end="url(#ah-666666)"/>
  <path d="M85 80 L135 65" fill="none" stroke="#fbbf24" stroke-width="1" stroke-linejoin="round" stroke-linecap="round" marker-end="url(#ah-fbbf24)"/>
  <path d="M85 115 L135 130" fill="none" stroke="#fbbf24" stroke-width="1" stroke-linejoin="round" stroke-linecap="round" marker-end="url(#ah-fbbf24)"/>
  <path d="M205 97 L255 97" fill="none" stroke="#666666" stroke-width="2" stroke-linejoin="round" stroke-linecap="round" marker-end="url(#ah-666666)"/>
  <path d="M225 70 L280 150" fill="none" stroke="#ef4444" stroke-width="1" stroke-dasharray="8 4" stroke-linejoin="round" stroke-linecap="round" marker-end="url(#ah-ef4444)"/>
  <text x="260" y="123" font-family='"Inter", "Segoe UI", system-ui, -apple-system, sans-serif' font-size="8" fill="#ef4444" text-anchor="middle">if wrong</text>
</svg>