<svg xmlns="http://www.w3.org/2000/svg" viewBox="0 0 460 110" width="460" height="110">
  <!-- svg-source:excalidraw — spec-sequential.excalidraw -->
  <defs>
    <marker id="ah-666666" viewBox="0 0 10 10" refX="10" refY="5" markerWidth="8" markerHeight="8" orient="auto-start-reverse"><path d="M0,0 L10,5 L0,10 Z" fill="#666666"/></marker>
  </defs>

  <rect x="0" y="0" width="460" height="110" fill="#08080a"/>
  <rect x="20" y="20" width="420" height="70" rx="12" fill="#1f1f23" stroke="#ef4444" stroke-width="2"/>
  <text x="220" y="39" font-family="\"Inter\", \"Segoe UI\", system-ui, -apple-system, sans-serif" font-size="11" fill="#ef4444" text-anchor="middle">Sequential (Slow)</text>
  <rect x="35" y="50" width="60" height="30" rx="6" fill="#2d2d35" stroke="#60a5fa" stroke-width="2"/>
  <text x="65" y="68" font-family="\"Inter\", \"Segoe UI\", system-ui, -apple-system, sans-serif" font-size="10" fill="#f0ede8" text-anchor="middle">Task A</text>
  <rect x="115" y="50" width="45" height="30" rx="6" fill="#2d2d35" stroke="#666666" stroke-width="1"/>
  <text x="137" y="68" font-family="\"Inter\", \"Segoe UI\", system-ui, -apple-system, sans-serif" font-size="10" fill="#666666" text-anchor="middle">Wait</text>
  <rect x="180" y="50" width="60" height="30" rx="6" fill="#2d2d35" stroke="#60a5fa" stroke-width="2"/>
  <text x="210" y="68" font-family="\"Inter\", \"Segoe UI\", system-ui, -apple-system, sans-serif" font-size="10" fill="#f0ede8" text-anchor="middle">Task B</text>
  <rect x="260" y="50" width="45" height="30" rx="6" fill="#2d2d35" stroke="#666666" stroke-width="1"/>
  <text x="282" y="68" font-family="\"Inter\", \"Segoe UI\", system-ui, -apple-system, sans-serif" font-size="10" fill="#666666" text-anchor="middle">Wait</text>
  <rect x="325" y="50" width="60" height="30" rx="6" fill="#2d2d35" stroke="#60a5fa" stroke-width="2"/>
  <text x="355" y="68" font-family="\"Inter\", \"Segoe UI\", system-ui, -apple-system, sans-serif" font-size="10" fill="#f0ede8" text-anchor="middle">Task C</text>
  <path d="M100 65 L112 65" fill="none" stroke="#666666" stroke-width="2" stroke-linejoin="round" stroke-linecap="round" marker-end="url(#ah-666666)"/>
  <path d="M163 65 L175 65" fill="none" stroke="#666666" stroke-width="2" stroke-linejoin="round" stroke-linecap="round" marker-end="url(#ah-666666)"/>
  <path d="M245 65 L257 65" fill="none" stroke="#666666" stroke-width="2" stroke-linejoin="round" stroke-linecap="round" marker-end="url(#ah-666666)"/>
  <path d="M308 65 L320 65" fill="none" stroke="#666666" stroke-width="2" stroke-linejoin="round" stroke-linecap="round" marker-end="url(#ah-666666)"/>
</svg>