<svg xmlns="http://www.w3.org/2000/svg" viewBox="0 0 320 230" width="320" height="230">
  <!-- svg-source:excalidraw — spec-cost-decision.excalidraw -->
  <defs>
    <marker id="ah-666666" viewBox="0 0 10 10" refX="10" refY="5" markerWidth="8" markerHeight="8" orient="auto-start-reverse"><path d="M0,0 L10,5 L0,10 Z" fill="#666666"/></marker>
    <marker id="ah-4ade80" viewBox="0 0 10 10" refX="10" refY="5" markerWidth="8" markerHeight="8" orient="auto-start-reverse"><path d="M0,0 L10,5 L0,10 Z" fill="#4ade80"/></marker>
    <marker id="ah-ef4444" viewBox="0 0 10 10" refX="10" refY="5" markerWidth="8" markerHeight="8" orient="auto-start-reverse"><path d="M0,0 L10,5 L0,10 Z" fill="#ef4444"/></marker>
  </defs>

  <rect x="0" y="0" width="320" height="230" fill="#08080a"/>
  <rect x="120" y="20" width="100" height="40" rx="6" fill="#2d2d35" stroke="#60a5fa" stroke-width="2"/>
  <text x="170" y="42" font-family='"Inter", "Segoe UI", system-ui, -apple-system, sans-serif' font-size="10" fill="#f0ede8" text-anchor="middle">Prediction 85%</text>
  <path d="M170 90l30 25 -30 25 -30 -25Z" fill="#2d2d35" stroke="#fbbf24" stroke-width="2" stroke-linejoin="round"/>
  <text x="170" y="118" font-family='"Inter", "Segoe UI", system-ui, -apple-system, sans-serif' font-size="10" fill="#fbbf24" text-anchor="middle">Cost?</text>
  <rect x="20" y="170" width="100" height="40" rx="6" fill="#2d2d35" stroke="#4ade80" stroke-width="2"/>
  <text x="70" y="192" font-family='"Inter", "Segoe UI", system-ui, -apple-system, sans-serif' font-size="10" fill="#4ade80" text-anchor="middle">Speculate ✓</text>
  <rect x="220" y="170" width="80" height="40" rx="6" fill="#2d2d35" stroke="#ef4444" stroke-width="2"/>
  <text x="260" y="192" font-family='"Inter", "Segoe UI", system-ui, -apple-system, sans-serif' font-size="10" fill="#ef4444" text-anchor="middle">Wait</text>
  <path d="M170 65 L170 85" fill="none" stroke="#666666" stroke-width="2" stroke-linejoin="round" stroke-linecap="round" marker-end="url(#ah-666666)"/>
  <path d="M145 130 L85 165" fill="none" stroke="#4ade80" stroke-width="2" stroke-linejoin="round" stroke-linecap="round" marker-end="url(#ah-4ade80)"/>
  <path d="M195 130 L255 165" fill="none" stroke="#ef4444" stroke-width="2" stroke-linejoin="round" stroke-linecap="round" marker-end="url(#ah-ef4444)"/>
  <text x="75" y="154" font-family='"Inter", "Segoe UI", system-ui, -apple-system, sans-serif' font-size="9" fill="#4ade80" text-anchor="middle">Low: file read</text>
  <text x="260" y="154" font-family='"Inter", "Segoe UI", system-ui, -apple-system, sans-serif' font-size="9" fill="#ef4444" text-anchor="middle">High: API call</text>
</svg>