<svg xmlns="http://www.w3.org/2000/svg" viewBox="0 0 530 232" width="530" height="232">
  <!-- svg-source:excalidraw — uc-knowledge-graph.excalidraw -->
  <defs>
    <marker id="ah-fbbf24" viewBox="0 0 10 10" refX="10" refY="5" markerWidth="8" markerHeight="8" orient="auto-start-reverse"><path d="M0,0 L10,5 L0,10 Z" fill="#fbbf24"/></marker>
    <marker id="ah-60a5fa" viewBox="0 0 10 10" refX="10" refY="5" markerWidth="8" markerHeight="8" orient="auto-start-reverse"><path d="M0,0 L10,5 L0,10 Z" fill="#60a5fa"/></marker>
    <marker id="ah-a78bfa" viewBox="0 0 10 10" refX="10" refY="5" markerWidth="8" markerHeight="8" orient="auto-start-reverse"><path d="M0,0 L10,5 L0,10 Z" fill="#a78bfa"/></marker>
    <marker id="ah-4ade80" viewBox="0 0 10 10" refX="10" refY="5" markerWidth="8" markerHeight="8" orient="auto-start-reverse"><path d="M0,0 L10,5 L0,10 Z" fill="#4ade80"/></marker>
    <marker id="ah-ef4444" viewBox="0 0 10 10" refX="10" refY="5" markerWidth="8" markerHeight="8" orient="auto-start-reverse"><path d="M0,0 L10,5 L0,10 Z" fill="#ef4444"/></marker>
  </defs>

  <rect x="0" y="0" width="530" height="232" fill="#08080a"/>
  <text x="75" y="32" font-family='"Inter", "Segoe UI", system-ui, -apple-system, sans-serif' font-size="12" fill="#ef4444" text-anchor="middle">BEFORE</text>
  <text x="415" y="32" font-family='"Inter", "Segoe UI", system-ui, -apple-system, sans-serif' font-size="12" fill="#4ade80" text-anchor="middle">AFTER</text>
  <rect x="20" y="48" width="110" height="35" rx="4" fill="#2d2d35" stroke="#666666" stroke-width="1.5"/>
  <text x="75" y="67" font-family='"Inter", "Segoe UI", system-ui, -apple-system, sans-serif' font-size="9" fill="#666666" text-anchor="middle">Sizing.xlsx</text>
  <rect x="20" y="95" width="110" height="35" rx="4" fill="#2d2d35" stroke="#666666" stroke-width="1.5"/>
  <text x="75" y="114" font-family='"Inter", "Segoe UI", system-ui, -apple-system, sans-serif' font-size="9" fill="#666666" text-anchor="middle">Costing.xlsx</text>
  <rect x="20" y="142" width="110" height="35" rx="4" fill="#2d2d35" stroke="#666666" stroke-width="1.5"/>
  <text x="75" y="161" font-family='"Inter", "Segoe UI", system-ui, -apple-system, sans-serif' font-size="9" fill="#666666" text-anchor="middle">Process.xlsx</text>
  <path d="M75 83 L75 95" fill="none" stroke="#666666" stroke-width="1" stroke-dasharray="8 4" stroke-linejoin="round" stroke-linecap="round"/>
  <path d="M75 130 L75 142" fill="none" stroke="#666666" stroke-width="1" stroke-dasharray="8 4" stroke-linejoin="round" stroke-linecap="round"/>
  <text x="75" y="199" font-family='"Inter", "Segoe UI", system-ui, -apple-system, sans-serif' font-size="9" fill="#ef4444" text-anchor="middle">Dependencies?</text>
  <path d="M165 115 L235 115" fill="none" stroke="#fbbf24" stroke-width="2.5" stroke-linejoin="round" stroke-linecap="round" marker-end="url(#ah-fbbf24)"/>
  <text x="200" y="105" font-family='"Inter", "Segoe UI", system-ui, -apple-system, sans-serif' font-size="10" fill="#fbbf24" text-anchor="middle">Parse</text>
  <rect x="365" y="40" width="120" height="30" rx="8" fill="#1f1f23" stroke="#fbbf24" stroke-width="2"/>
  <text x="425" y="58" font-family='"Inter", "Segoe UI", system-ui, -apple-system, sans-serif' font-size="10" fill="#fbbf24" text-anchor="middle">Bid Price</text>
  <rect x="275" y="105" width="100" height="26" rx="6" fill="#2d2d35" stroke="#60a5fa" stroke-width="1.5"/>
  <text x="325" y="119" font-family='"Inter", "Segoe UI", system-ui, -apple-system, sans-serif' font-size="8" fill="#60a5fa" text-anchor="middle">Material Cost</text>
  <rect x="395" y="105" width="100" height="26" rx="6" fill="#2d2d35" stroke="#a78bfa" stroke-width="1.5"/>
  <text x="445" y="119" font-family='"Inter", "Segoe UI", system-ui, -apple-system, sans-serif' font-size="8" fill="#a78bfa" text-anchor="middle">Process Cost</text>
  <rect x="275" y="165" width="90" height="24" rx="4" fill="#2d2d35" stroke="#4ade80" stroke-width="1"/>
  <text x="320" y="179" font-family='"Inter", "Segoe UI", system-ui, -apple-system, sans-serif' font-size="8" fill="#4ade80" text-anchor="middle">Density = 1.8</text>
  <rect x="415" y="165" width="90" height="24" rx="4" fill="#2d2d35" stroke="#ef4444" stroke-width="1.5"/>
  <text x="460" y="179" font-family='"Inter", "Segoe UI", system-ui, -apple-system, sans-serif' font-size="8" fill="#ef4444" text-anchor="middle">Density = 2.1</text>
  <path d="M325 70 L325 105" fill="none" stroke="#60a5fa" stroke-width="1.5" stroke-linejoin="round" stroke-linecap="round" marker-end="url(#ah-60a5fa)"/>
  <path d="M445 70 L445 105" fill="none" stroke="#a78bfa" stroke-width="1.5" stroke-linejoin="round" stroke-linecap="round" marker-end="url(#ah-a78bfa)"/>
  <path d="M325 131 L325 165" fill="none" stroke="#4ade80" stroke-width="1.5" stroke-linejoin="round" stroke-linecap="round" marker-end="url(#ah-4ade80)"/>
  <path d="M445 131 L460 165" fill="none" stroke="#ef4444" stroke-width="1.5" stroke-linejoin="round" stroke-linecap="round" marker-end="url(#ah-ef4444)"/>
  <rect x="268" y="158" width="244" height="38" rx="8" fill="transparent" stroke="#ef4444" stroke-width="1.5"/>
  <text x="425" y="209" font-family='"Inter", "Segoe UI", system-ui, -apple-system, sans-serif' font-size="9" fill="#ef4444" text-anchor="middle">Conflict visible!</text>
</svg>