<svg xmlns="http://www.w3.org/2000/svg" viewBox="0 0 570 254" width="570" height="254">
  <!-- svg-source:excalidraw — uc-knowledge-graph.excalidraw -->
  <defs>
    <marker id="ah-fbbf24" viewBox="0 0 10 10" refX="10" refY="5" markerWidth="8" markerHeight="8" orient="auto-start-reverse"><path d="M0,0 L10,5 L0,10 Z" fill="#fbbf24"/></marker>
    <marker id="ah-60a5fa" viewBox="0 0 10 10" refX="10" refY="5" markerWidth="8" markerHeight="8" orient="auto-start-reverse"><path d="M0,0 L10,5 L0,10 Z" fill="#60a5fa"/></marker>
    <marker id="ah-a78bfa" viewBox="0 0 10 10" refX="10" refY="5" markerWidth="8" markerHeight="8" orient="auto-start-reverse"><path d="M0,0 L10,5 L0,10 Z" fill="#a78bfa"/></marker>
    <marker id="ah-4ade80" viewBox="0 0 10 10" refX="10" refY="5" markerWidth="8" markerHeight="8" orient="auto-start-reverse"><path d="M0,0 L10,5 L0,10 Z" fill="#4ade80"/></marker>
    <marker id="ah-ef4444" viewBox="0 0 10 10" refX="10" refY="5" markerWidth="8" markerHeight="8" orient="auto-start-reverse"><path d="M0,0 L10,5 L0,10 Z" fill="#ef4444"/></marker>
  </defs>

  <rect x="0" y="0" width="570" height="254" fill="#08080a"/>
  <text x="110" y="33" font-family='"Inter", "Segoe UI", system-ui, -apple-system, sans-serif' font-size="13" fill="#ef4444" text-anchor="middle">BEFORE</text>
  <text x="400" y="33" font-family='"Inter", "Segoe UI", system-ui, -apple-system, sans-serif' font-size="13" fill="#4ade80" text-anchor="middle">AFTER</text>
  <rect x="20" y="40" width="170" height="185" rx="10" fill="#1a1a1e" stroke="#666666" stroke-width="1.2"/>
  <rect x="250" y="40" width="300" height="185" rx="10" fill="#1a1a1e" stroke="#666666" stroke-width="1.2"/>
  <rect x="42" y="66" width="126" height="38" rx="5" fill="#2d2d35" stroke="#666666" stroke-width="1.5"/>
  <text x="105" y="90" font-family='"Inter", "Segoe UI", system-ui, -apple-system, sans-serif' font-size="11" fill="#f0ede8" text-anchor="middle">Sizing.xlsx</text>
  <rect x="42" y="114" width="126" height="38" rx="5" fill="#2d2d35" stroke="#666666" stroke-width="1.5"/>
  <text x="105" y="138" font-family='"Inter", "Segoe UI", system-ui, -apple-system, sans-serif' font-size="11" fill="#f0ede8" text-anchor="middle">Costing.xlsx</text>
  <rect x="42" y="162" width="126" height="38" rx="5" fill="#2d2d35" stroke="#666666" stroke-width="1.5"/>
  <text x="105" y="186" font-family='"Inter", "Segoe UI", system-ui, -apple-system, sans-serif' font-size="11" fill="#f0ede8" text-anchor="middle">Process.xlsx</text>
  <path d="M105 104 L105 114" fill="none" stroke="#666666" stroke-width="1" stroke-dasharray="8 4" stroke-linejoin="round" stroke-linecap="round"/>
  <path d="M105 152 L105 162" fill="none" stroke="#666666" stroke-width="1" stroke-dasharray="8 4" stroke-linejoin="round" stroke-linecap="round"/>
  <text x="105" y="218" font-family='"Inter", "Segoe UI", system-ui, -apple-system, sans-serif' font-size="10" fill="#ef4444" text-anchor="middle">Dependencies hidden</text>
  <path d="M195 132 L240 132" fill="none" stroke="#fbbf24" stroke-width="2.5" stroke-linejoin="round" stroke-linecap="round" marker-end="url(#ah-fbbf24)"/>
  <text x="217.5" y="120" font-family='"Inter", "Segoe UI", system-ui, -apple-system, sans-serif' font-size="10" fill="#fbbf24" text-anchor="middle">Parse</text>
  <rect x="345" y="62" width="130" height="36" rx="8" fill="#1f1f23" stroke="#fbbf24" stroke-width="2"/>
  <text x="410" y="84" font-family='"Inter", "Segoe UI", system-ui, -apple-system, sans-serif' font-size="11" fill="#fbbf24" text-anchor="middle">Bid Price</text>
  <rect x="280" y="120" width="118" height="30" rx="6" fill="#2d2d35" stroke="#60a5fa" stroke-width="1.5"/>
  <text x="339" y="140" font-family='"Inter", "Segoe UI", system-ui, -apple-system, sans-serif' font-size="10" fill="#60a5fa" text-anchor="middle">Material Cost</text>
  <rect x="410" y="120" width="118" height="30" rx="6" fill="#2d2d35" stroke="#a78bfa" stroke-width="1.5"/>
  <text x="469" y="140" font-family='"Inter", "Segoe UI", system-ui, -apple-system, sans-serif' font-size="10" fill="#a78bfa" text-anchor="middle">Process Cost</text>
  <rect x="280" y="180" width="118" height="28" rx="5" fill="#2d2d35" stroke="#4ade80" stroke-width="1.2"/>
  <text x="339" y="198" font-family='"Inter", "Segoe UI", system-ui, -apple-system, sans-serif' font-size="9" fill="#4ade80" text-anchor="middle">Density = 1.8</text>
  <rect x="410" y="180" width="118" height="28" rx="5" fill="#2d2d35" stroke="#ef4444" stroke-width="1.5"/>
  <text x="469" y="198" font-family='"Inter", "Segoe UI", system-ui, -apple-system, sans-serif' font-size="9" fill="#ef4444" text-anchor="middle">Density = 2.1</text>
  <path d="M339 98 L339 120" fill="none" stroke="#60a5fa" stroke-width="1.5" stroke-linejoin="round" stroke-linecap="round" marker-end="url(#ah-60a5fa)"/>
  <path d="M469 98 L469 120" fill="none" stroke="#a78bfa" stroke-width="1.5" stroke-linejoin="round" stroke-linecap="round" marker-end="url(#ah-a78bfa)"/>
  <path d="M339 150 L339 180" fill="none" stroke="#4ade80" stroke-width="1.5" stroke-linejoin="round" stroke-linecap="round" marker-end="url(#ah-4ade80)"/>
  <path d="M469 150 L481 180" fill="none" stroke="#ef4444" stroke-width="1.5" stroke-linejoin="round" stroke-linecap="round" marker-end="url(#ah-ef4444)"/>
  <rect x="400" y="174" width="138" height="42" rx="8" fill="transparent" stroke="#ef4444" stroke-width="1.5"/>
  <text x="469" y="231" font-family='"Inter", "Segoe UI", system-ui, -apple-system, sans-serif' font-size="10" fill="#ef4444" text-anchor="middle">Conflict visible!</text>
</svg>