<svg xmlns="http://www.w3.org/2000/svg" viewBox="0 0 530 232" width="530" height="232">
  <!-- svg-source:excalidraw — uc-knowledge-graph.excalidraw -->
  <defs>
    <marker id="ah-fbbf24" viewBox="0 0 10 10" refX="10" refY="5" markerWidth="8" markerHeight="8" orient="auto-start-reverse"><path d="M0,0 L10,5 L0,10 Z" fill="#fbbf24"/></marker>
    <marker id="ah-60a5fa" viewBox="0 0 10 10" refX="10" refY="5" markerWidth="8" markerHeight="8" orient="auto-start-reverse"><path d="M0,0 L10,5 L0,10 Z" fill="#60a5fa"/></marker>
    <marker id="ah-a78bfa" viewBox="0 0 10 10" refX="10" refY="5" markerWidth="8" markerHeight="8" orient="auto-start-reverse"><path d="M0,0 L10,5 L0,10 Z" fill="#a78bfa"/></marker>
    <marker id="ah-4ade80" viewBox="0 0 10 10" refX="10" refY="5" markerWidth="8" markerHeight="8" orient="auto-start-reverse"><path d="M0,0 L10,5 L0,10 Z" fill="#4ade80"/></marker>
    <marker id="ah-ef4444" viewBox="0 0 10 10" refX="10" refY="5" markerWidth="8" markerHeight="8" orient="auto-start-reverse"><path d="M0,0 L10,5 L0,10 Z" fill="#ef4444"/></marker>
  </defs>

  <rect x="0" y="0" width="530" height="232" fill="#08080a"/>
  <g transform="translate(-5 10)">
  <text x="80" y="22" font-family="\"Inter\", \"Segoe UI\", system-ui, -apple-system, sans-serif" font-size="12" fill="#ef4444" text-anchor="middle">BEFORE</text>
  <text x="420" y="22" font-family="\"Inter\", \"Segoe UI\", system-ui, -apple-system, sans-serif" font-size="12" fill="#4ade80" text-anchor="middle">AFTER</text>
  <rect x="25" y="38" width="110" height="35" rx="4" fill="#2d2d35" stroke="#666666" stroke-width="1.5"/>
  <text x="80" y="57" font-family="\"Inter\", \"Segoe UI\", system-ui, -apple-system, sans-serif" font-size="9" fill="#666666" text-anchor="middle">Sizing.xlsx</text>
  <rect x="25" y="85" width="110" height="35" rx="4" fill="#2d2d35" stroke="#666666" stroke-width="1.5"/>
  <text x="80" y="104" font-family="\"Inter\", \"Segoe UI\", system-ui, -apple-system, sans-serif" font-size="9" fill="#666666" text-anchor="middle">Costing.xlsx</text>
  <rect x="25" y="132" width="110" height="35" rx="4" fill="#2d2d35" stroke="#666666" stroke-width="1.5"/>
  <text x="80" y="151" font-family="\"Inter\", \"Segoe UI\", system-ui, -apple-system, sans-serif" font-size="9" fill="#666666" text-anchor="middle">Process.xlsx</text>
  <path d="M80 73 L80 85" fill="none" stroke="#666666" stroke-width="1" stroke-dasharray="8 4" stroke-linejoin="round" stroke-linecap="round"/>
  <path d="M80 120 L80 132" fill="none" stroke="#666666" stroke-width="1" stroke-dasharray="8 4" stroke-linejoin="round" stroke-linecap="round"/>
  <text x="80" y="189" font-family="\"Inter\", \"Segoe UI\", system-ui, -apple-system, sans-serif" font-size="9" fill="#ef4444" text-anchor="middle">Dependencies?</text>
  <path d="M170 105 L240 105" fill="none" stroke="#fbbf24" stroke-width="2.5" stroke-linejoin="round" stroke-linecap="round" marker-end="url(#ah-fbbf24)"/>
  <text x="205" y="95" font-family="\"Inter\", \"Segoe UI\", system-ui, -apple-system, sans-serif" font-size="10" fill="#fbbf24" text-anchor="middle">Parse</text>
  <rect x="370" y="30" width="120" height="30" rx="8" fill="#1f1f23" stroke="#fbbf24" stroke-width="2"/>
  <text x="430" y="48" font-family="\"Inter\", \"Segoe UI\", system-ui, -apple-system, sans-serif" font-size="10" fill="#fbbf24" text-anchor="middle">Bid Price</text>
  <rect x="280" y="95" width="100" height="26" rx="6" fill="#2d2d35" stroke="#60a5fa" stroke-width="1.5"/>
  <text x="330" y="109" font-family="\"Inter\", \"Segoe UI\", system-ui, -apple-system, sans-serif" font-size="8" fill="#60a5fa" text-anchor="middle">Material Cost</text>
  <rect x="400" y="95" width="100" height="26" rx="6" fill="#2d2d35" stroke="#a78bfa" stroke-width="1.5"/>
  <text x="450" y="109" font-family="\"Inter\", \"Segoe UI\", system-ui, -apple-system, sans-serif" font-size="8" fill="#a78bfa" text-anchor="middle">Process Cost</text>
  <rect x="280" y="155" width="90" height="24" rx="4" fill="#2d2d35" stroke="#4ade80" stroke-width="1"/>
  <text x="325" y="169" font-family="\"Inter\", \"Segoe UI\", system-ui, -apple-system, sans-serif" font-size="8" fill="#4ade80" text-anchor="middle">Density = 1.8</text>
  <rect x="420" y="155" width="90" height="24" rx="4" fill="#2d2d35" stroke="#ef4444" stroke-width="1.5"/>
  <text x="465" y="169" font-family="\"Inter\", \"Segoe UI\", system-ui, -apple-system, sans-serif" font-size="8" fill="#ef4444" text-anchor="middle">Density = 2.1</text>
  <path d="M330 60 L330 95" fill="none" stroke="#60a5fa" stroke-width="1.5" stroke-linejoin="round" stroke-linecap="round" marker-end="url(#ah-60a5fa)"/>
  <path d="M450 60 L450 95" fill="none" stroke="#a78bfa" stroke-width="1.5" stroke-linejoin="round" stroke-linecap="round" marker-end="url(#ah-a78bfa)"/>
  <path d="M330 121 L330 155" fill="none" stroke="#4ade80" stroke-width="1.5" stroke-linejoin="round" stroke-linecap="round" marker-end="url(#ah-4ade80)"/>
  <path d="M450 121 L465 155" fill="none" stroke="#ef4444" stroke-width="1.5" stroke-linejoin="round" stroke-linecap="round" marker-end="url(#ah-ef4444)"/>
  <rect x="340" y="148" width="175" height="38" rx="8" fill="transparent" stroke="#ef4444" stroke-width="1.5"/>
  <text x="430" y="199" font-family="\"Inter\", \"Segoe UI\", system-ui, -apple-system, sans-serif" font-size="9" fill="#ef4444" text-anchor="middle">Conflict visible!</text>
  </g>
</svg>